<?xml version="1.0" standalone="no"?><!DOCTYPE svg PUBLIC "-//W3C//DTD SVG 1.1//EN" "http://www.w3.org/Graphics/SVG/1.1/DTD/svg11.dtd"><svg height="688" node-id="1" sillyvg="true" template-height="688" template-width="1180" version="1.1" viewBox="0 0 1180 688" width="1180" xmlns="http://www.w3.org/2000/svg" xmlns:xlink="http://www.w3.org/1999/xlink"><defs node-id="172"><linearGradient gradientUnits="objectBoundingBox" id="linearGradient-5" node-id="7" spreadMethod="pad" x1="0.022740772" x2="0.97725815" y1="0.40509593" y2="0.59490365"><stop offset="0" stop-color="#d4eeff"></stop><stop offset="1" stop-color="#d4eeff"></stop></linearGradient><linearGradient gradientUnits="objectBoundingBox" id="linearGradient-8" node-id="11" spreadMethod="pad" x1="0.022345679" x2="0.9776545" y1="0.40533417" y2="0.5946642"><stop offset="0" stop-color="#d4eeff"></stop><stop offset="1" stop-color="#d4eeff"></stop></linearGradient><linearGradient gradientUnits="objectBoundingBox" id="linearGradient-13" node-id="16" spreadMethod="pad" x1="0.50957984" x2="0.4976341" y1="-0.25777137" y2="0.6874055"><stop offset="0" stop-color="#151686"></stop><stop offset="1" stop-color="#2438b6"></stop></linearGradient><linearGradient gradientUnits="objectBoundingBox" id="linearGradient-14" node-id="19" spreadMethod="pad" x1="0.5095815" x2="0.49763596" y1="-0.25777137" y2="0.6874055"><stop offset="0" stop-color="#151686"></stop><stop offset="1" stop-color="#2438b6"></stop></linearGradient><linearGradient gradientUnits="objectBoundingBox" id="linearGradient-17" node-id="23" spreadMethod="pad" x1="0.50810784" x2="0.49700126" y1="0.942686" y2="0.336995"><stop offset="0" stop-color="#151686"></stop><stop offset="1" stop-color="#2438b6"></stop></linearGradient><mask height="61.43335" id="mask-2" maskUnits="userSpaceOnUse" node-id="35" width="61.432556" x="-5.1195197" y="262.68906"><path d="M 0.00 267.80 L 51.20 267.80 L 51.20 319.00 L 0.00 319.00 Z" fill="#ffffff" fill-rule="evenodd" node-id="207" stroke="none" target-height="51.200012" target-width="51.2" target-x="0" target-y="267.8"></path></mask><mask height="204.76886" id="mask-4" maskUnits="userSpaceOnUse" node-id="45" width="412.77365" x="239.60867" y="225.19342"><path d="M 274.00 281.30 L 602.30 412.90 L 618.00 373.90 L 289.70 242.30 Z" fill="#ffffff" fill-rule="evenodd" node-id="214" stroke="none" target-height="170.59999" target-width="344" target-x="274" target-y="242.3"></path></mask><mask height="169.77849" id="mask-7" maskUnits="userSpaceOnUse" node-id="50" width="343.388" x="477.99023" y="223.16512"><path d="M 506.60 269.20 L 780.00 378.80 L 792.80 346.90 L 519.40 237.30 Z" fill="#ffffff" fill-rule="evenodd" node-id="221" stroke="none" target-height="141.49998" target-width="286.19998" target-x="506.6" target-y="237.3"></path></mask><mask height="266.8782" id="mask-10" maskUnits="userSpaceOnUse" node-id="88" width="266.87494" x="3.3444366" y="-21.539751"><path d="M 25.60 0.70 L 248.00 0.70 L 248.00 223.10 L 25.60 223.10 Z" fill="#ffffff" fill-rule="evenodd" node-id="228" stroke="none" target-height="222.40001" target-width="222.4" target-x="25.6" target-y="0.7"></path></mask><mask height="3.953064" id="mask-12" maskUnits="userSpaceOnUse" node-id="109" width="1047.2106" x="44.99015" y="682.84094"><path d="M 132.30 683.20 L 1004.90 683.20 L 1004.90 686.50 L 132.30 686.50 Z" fill="#ffffff" fill-rule="evenodd" node-id="235" stroke="none" target-height="3.2999878" target-width="872.60004" target-x="132.3" target-y="683.2"></path></mask><mask height="460.51187" id="mask-16" maskUnits="userSpaceOnUse" node-id="122" width="324.5119" x="442.62885" y="125.56491"><path d="M 548.20 163.90 L 548.20 177.30 L 537.80 183.50 L 532.80 187.10 L 526.40 192.30 L 520.30 198.00 L 514.50 204.20 L 509.00 210.90 L 503.80 218.20 L 498.90 226.10 L 494.30 234.50 L 489.90 243.60 L 485.90 253.40 L 482.30 263.90 L 479.10 274.90 L 476.30 286.60 L 474.00 299.00 L 472.20 312.10 L 470.80 325.90 L 470.00 340.60 L 469.70 356.10 L 470.00 371.40 L 470.80 385.90 L 472.20 399.70 L 474.00 412.70 L 476.40 425.10 L 479.20 436.80 L 482.50 447.90 L 486.20 458.50 L 490.20 468.40 L 494.60 477.50 L 499.20 486.00 L 504.20 493.90 L 509.40 501.20 L 514.90 507.90 L 520.80 514.00 L 526.90 519.70 L 533.30 524.80 L 538.10 528.30 L 548.20 534.30 L 548.20 547.70 L 605.10 547.70 L 614.40 547.40 L 623.30 546.50 L 631.80 545.10 L 640.00 543.10 L 647.90 540.50 L 655.50 537.40 L 662.80 533.80 L 669.90 529.60 L 676.70 524.80 L 683.10 519.70 L 689.10 514.00 L 694.90 507.90 L 700.40 501.20 L 705.60 493.90 L 710.50 486.00 L 715.20 477.50 L 719.50 468.40 L 723.60 458.50 L 727.30 447.90 L 730.50 436.80 L 733.40 425.10 L 735.70 412.70 L 737.60 399.70 L 739.00 385.90 L 739.80 371.40 L 740.10 356.10 L 739.80 340.60 L 739.00 325.90 L 737.60 312.10 L 735.80 299.00 L 733.40 286.60 L 730.70 274.90 L 727.40 263.90 L 723.80 253.40 L 719.80 243.60 L 715.50 234.50 L 710.90 226.00 L 706.00 218.20 L 700.80 210.90 L 695.30 204.20 L 689.60 198.00 L 683.50 192.30 L 677.20 187.10 L 670.30 182.30 L 663.20 178.00 L 655.90 174.30 L 648.30 171.20 L 640.30 168.60 L 632.10 166.60 L 623.50 165.10 L 614.50 164.20 L 605.10 163.90 L 548.20 163.90 Z" fill="#ffffff" fill-rule="evenodd" node-id="242" stroke="none" target-height="383.80002" target-width="270.39996" target-x="469.7" target-y="163.9"></path></mask><mask height="149.8862" id="mask-19" maskUnits="userSpaceOnUse" node-id="138" width="33.420166" x="616.87885" y="393.17984"><path d="M 619.70 469.30 L 624.10 530.60 L 647.50 512.60 L 641.40 405.70 Z" fill="#ffffff" fill-rule="evenodd" node-id="249" stroke="none" target-height="124.89996" target-width="27.799988" target-x="619.7" target-y="405.7"></path></mask></defs><g node-id="251"><g node-id="252"><g node-id="253"><path d="M 308.70 59.70 L 308.50 63.20 L 307.80 66.50 L 306.70 69.70 L 305.20 72.70 L 303.40 75.40 L 301.20 77.80 L 298.80 80.00 L 296.10 81.80 L 293.10 83.30 L 290.00 84.40 L 286.60 85.10 L 283.10 85.30 L 279.60 85.10 L 276.30 84.40 L 273.20 83.30 L 270.20 81.80 L 267.50 80.00 L 265.00 77.80 L 262.90 75.40 L 261.00 72.70 L 259.50 69.70 L 258.50 66.50 L 257.80 63.20 L 257.50 59.70 L 257.80 56.20 L 258.50 52.90 L 259.50 49.80 L 261.00 46.80 L 262.90 44.10 L 265.00 41.60 L 267.50 39.50 L 270.20 37.60 L 273.20 36.10 L 276.30 35.00 L 279.60 34.40 L 283.10 34.10 L 286.60 34.40 L 290.00 35.00 L 293.10 36.10 L 296.10 37.60 L 298.80 39.50 L 301.20 41.60 L 303.40 44.10 L 305.20 46.80 L 306.70 49.80 L 307.80 52.90 L 308.50 56.20 L 308.70 59.70" fill="#c3e4ff" fill-rule="evenodd" group-id="1,2,3" id="Fill-1" node-id="31" stroke="none" target-height="51.200005" target-width="51.200012" target-x="257.5" target-y="34.1"></path><path d="M 1024.10 329.10 L 1023.90 332.60 L 1023.20 335.90 L 1022.10 339.10 L 1020.60 342.10 L 1018.80 344.80 L 1016.60 347.20 L 1014.10 349.40 L 1011.40 351.20 L 1008.50 352.70 L 1005.30 353.80 L 1002.00 354.50 L 998.50 354.70 L 995.00 354.50 L 991.70 353.80 L 988.50 352.70 L 985.60 351.20 L 982.90 349.40 L 980.40 347.20 L 978.20 344.80 L 976.40 342.10 L 974.90 339.10 L 973.80 335.90 L 973.10 332.60 L 972.90 329.10 L 973.10 325.60 L 973.80 322.30 L 974.90 319.20 L 976.40 316.20 L 978.20 313.50 L 980.40 311.00 L 982.90 308.90 L 985.60 307.00 L 988.50 305.50 L 991.70 304.40 L 995.00 303.80 L 998.50 303.50 L 1002.00 303.80 L 1005.30 304.40 L 1008.50 305.50 L 1011.40 307.00 L 1014.10 308.90 L 1016.60 311.00 L 1018.80 313.50 L 1020.60 316.20 L 1022.10 319.20 L 1023.20 322.30 L 1023.90 325.60 L 1024.10 329.10" fill="#c3e4ff" fill-rule="evenodd" group-id="1,2,3" id="Fill-3" node-id="32" stroke="none" target-height="51.200012" target-width="51.19995" target-x="972.9" target-y="303.5"></path><path d="M 1145.90 59.70 L 1145.60 63.20 L 1144.90 66.50 L 1143.80 69.70 L 1142.30 72.70 L 1140.50 75.40 L 1138.40 77.80 L 1135.90 80.00 L 1133.20 81.80 L 1130.20 83.30 L 1127.10 84.40 L 1123.80 85.10 L 1120.30 85.30 L 1116.70 85.10 L 1113.40 84.40 L 1110.30 83.30 L 1107.30 81.80 L 1104.60 80.00 L 1102.20 77.80 L 1100.00 75.40 L 1098.20 72.70 L 1096.70 69.70 L 1095.60 66.50 L 1094.90 63.20 L 1094.70 59.70 L 1094.90 56.20 L 1095.60 52.90 L 1096.70 49.80 L 1098.20 46.80 L 1100.00 44.10 L 1102.20 41.60 L 1104.60 39.50 L 1107.30 37.60 L 1110.30 36.10 L 1113.40 35.00 L 1116.70 34.40 L 1120.30 34.10 L 1123.80 34.40 L 1127.10 35.00 L 1130.20 36.10 L 1133.20 37.60 L 1135.90 39.50 L 1138.40 41.60 L 1140.50 44.10 L 1142.30 46.80 L 1143.80 49.80 L 1144.90 52.90 L 1145.60 56.20 L 1145.90 59.70" fill="#d6eeff" fill-rule="evenodd" group-id="1,2,3" id="Fill-5" node-id="33" stroke="none" target-height="51.200005" target-width="51.200073" target-x="1094.7" target-y="34.1"></path><g node-id="256"><g node-id="265"><path d="M 51.20 293.40 L 50.90 296.90 L 50.30 300.20 L 49.20 303.40 L 47.70 306.30 L 45.90 309.00 L 43.70 311.50 L 41.20 313.70 L 38.50 315.50 L 35.60 317.00 L 32.40 318.10 L 29.10 318.80 L 25.60 319.00 L 22.10 318.80 L 18.80 318.10 L 15.60 317.00 L 12.70 315.50 L 10.00 313.70 L 7.50 311.50 L 5.30 309.00 L 3.50 306.30 L 2.00 303.40 L 0.90 300.20 L 0.20 296.90 L -0.00 293.40 L 0.20 289.90 L 0.90 286.60 L 2.00 283.40 L 3.50 280.50 L 5.30 277.80 L 7.50 275.30 L 10.00 273.10 L 12.70 271.30 L 15.60 269.80 L 18.80 268.70 L 22.10 268.10 L 25.60 267.80 L 29.10 268.10 L 32.40 268.70 L 35.60 269.80 L 38.50 271.30 L 41.20 273.10 L 43.70 275.30 L 45.90 277.80 L 47.70 280.50 L 49.20 283.40 L 50.30 286.60 L 50.90 289.90 L 51.20 293.40" fill="#d6eeff" fill-rule="evenodd" group-id="1,2,3,6,15" id="Fill-7" node-id="38" stroke="none" target-height="51.200012" target-width="51.2" target-x="-0" target-y="267.8"></path></g></g><path d="M 551.30 480.30 L 551.00 483.90 L 550.20 487.70 L 548.90 491.10 L 547.10 494.30 L 544.90 497.20 L 542.30 499.80 L 539.30 502.00 L 536.10 503.70 L 532.60 505.00 L 528.80 505.70 L 525.70 505.90 L 522.10 505.70 L 518.80 505.00 L 515.70 503.90 L 512.70 502.40 L 510.00 500.60 L 507.60 498.40 L 505.40 495.90 L 503.60 493.20 L 502.10 490.30 L 501.00 487.10 L 500.30 483.80 L 500.10 480.30 L 500.70 474.50 L 502.60 469.20 L 505.50 464.50 L 508.10 461.70 L 511.00 459.30 L 514.30 457.40 L 517.80 455.90 L 521.50 455.00 L 525.60 454.70 L 529.20 455.00 L 532.50 455.60 L 535.60 456.70 L 538.60 458.20 L 541.30 460.00 L 543.80 462.20 L 545.90 464.70 L 547.80 467.40 L 549.20 470.30 L 550.30 473.50 L 551.00 476.80 L 551.30 480.30" fill="#c3e4ff" fill-rule="evenodd" group-id="1,2,3" id="Fill-10" node-id="39" stroke="none" target-height="51.19998" target-width="51.19998" target-x="500.1" target-y="454.7"></path><path d="M 551.00 483.90 L 550.20 487.70 L 548.90 491.10 L 547.10 494.30 L 544.90 497.20 L 542.30 499.80 L 539.30 502.00 L 536.10 503.70 L 532.60 505.00 L 528.80 505.70 L 528.20 501.10 L 528.50 497.80 L 529.30 494.80 L 530.60 492.10 L 532.40 489.60 L 534.50 487.40 L 537.00 485.70 L 539.80 484.30 L 542.80 483.50 L 546.10 483.20 L 551.00 483.90" fill="#d6eeff" fill-rule="evenodd" group-id="1,2,3" id="Fill-12" node-id="40" stroke="none" target-height="22.5" target-width="22.799988" target-x="528.2" target-y="483.2"></path><path d="M 525.70 456.10 L 525.50 458.20 L 524.20 461.80 L 522.80 463.80 L 521.10 465.40 L 519.10 466.70 L 516.60 467.60 L 513.90 467.90 L 511.50 467.70 L 509.30 467.00 L 507.30 465.90 L 505.50 464.50 L 508.10 461.70 L 511.00 459.30 L 514.30 457.40 L 517.80 455.90 L 521.50 455.00 L 525.60 454.70 L 525.70 456.10" fill="#d6eeff" fill-rule="evenodd" group-id="1,2,3" id="Fill-14" node-id="41" stroke="none" target-height="13.199982" target-width="20.200012" target-x="505.5" target-y="454.7"></path><path d="M 528.20 466.30 L 528.00 467.60 L 526.90 469.60 L 524.90 470.70 L 523.60 470.90 L 521.30 470.30 L 519.70 468.60 L 519.30 467.60 L 519.10 466.30 L 519.70 464.00 L 521.30 462.40 L 523.60 461.80 L 524.90 462.00 L 526.90 463.10 L 528.00 465.10 L 528.20 466.30" fill="#d6eeff" fill-rule="evenodd" group-id="1,2,3" id="Fill-16" node-id="42" stroke="none" target-height="9.100006" target-width="9.100037" target-x="519.1" target-y="461.8"></path></g><g node-id="254"><g node-id="257"><g node-id="267"><path d="M 274.00 281.30 L 602.30 412.90 L 618.00 373.90 L 289.70 242.30 Z" fill="url(#linearGradient-5)" fill-rule="evenodd" group-id="1,2,4,7,17" id="Fill-19" node-id="48" stroke="none" target-height="170.59999" target-width="344" target-x="274" target-y="242.3"></path></g></g><g node-id="258"><g node-id="269"><path d="M 506.60 269.20 L 780.00 378.80 L 792.80 346.90 L 519.40 237.30 Z" fill="url(#linearGradient-8)" fill-rule="evenodd" group-id="1,2,4,8,19" id="Fill-22" node-id="53" stroke="none" target-height="141.49998" target-width="286.19998" target-x="506.6" target-y="237.3"></path></g></g><g node-id="259"><path d="M 802.30 369.20 L 800.90 372.00 L 799.10 374.40 L 796.90 376.40 L 794.40 378.00 L 791.80 379.20 L 788.90 379.80 L 786.00 380.00 L 783.00 379.70 L 780.00 378.80 L 777.20 377.40 L 774.80 375.60 L 772.80 373.40 L 771.20 370.90 L 770.10 368.20 L 769.40 365.40 L 769.20 362.40 L 769.50 359.50 L 770.40 356.40 L 771.90 353.60 L 773.70 351.30 L 775.80 349.30 L 778.30 347.70 L 781.00 346.50 L 783.80 345.80 L 786.80 345.70 L 789.70 346.00 L 792.80 346.90 L 795.60 348.30 L 797.90 350.10 L 799.90 352.30 L 801.50 354.80 L 802.70 357.40 L 803.40 360.30 L 803.60 363.30 L 803.20 366.20 L 802.30 369.20" fill="#d6eeff" fill-rule="evenodd" group-id="1,2,4,9" id="Fill-25" node-id="55" stroke="none" target-height="34.299988" target-width="34.399963" target-x="769.2" target-y="345.7"></path><path d="M 629.70 401.20 L 628.40 403.80 L 625.10 408.20 L 623.10 410.00 L 620.00 411.90 L 616.80 413.30 L 613.30 414.20 L 610.60 414.40 L 605.10 413.80 L 602.30 412.90 L 599.70 411.60 L 595.40 408.30 L 593.60 406.30 L 591.60 403.20 L 590.20 400.00 L 589.40 396.50 L 589.30 391.10 L 589.80 388.30 L 590.60 385.60 L 593.50 380.60 L 597.30 376.80 L 600.30 374.80 L 603.60 373.40 L 607.10 372.60 L 609.80 372.40 L 615.20 373.00 L 618.00 373.90 L 620.60 375.10 L 625.00 378.40 L 626.80 380.50 L 628.70 383.50 L 630.10 386.80 L 631.00 390.30 L 631.20 393.00 L 630.60 398.40 L 629.70 401.20" fill="#d6eeff" fill-rule="evenodd" group-id="1,2,4,9" id="Fill-27" node-id="56" stroke="none" target-height="42" target-width="41.900024" target-x="589.3" target-y="372.4"></path><path d="M 621.40 397.90 L 619.10 401.50 L 617.60 402.90 L 614.00 404.90 L 609.90 405.50 L 605.70 404.60 L 602.00 402.30 L 599.50 399.10 L 598.20 395.20 L 598.10 393.10 L 598.90 388.90 L 601.20 385.20 L 604.50 382.70 L 608.40 381.40 L 610.50 381.30 L 614.70 382.10 L 618.30 384.40 L 620.90 387.70 L 622.10 391.60 L 622.30 393.70 L 621.40 397.90" fill="#aad5ff" fill-rule="evenodd" group-id="1,2,4,9" id="Fill-29" node-id="57" stroke="none" target-height="24.200012" target-width="24.200012" target-x="598.1" target-y="381.3"></path><path d="M 794.90 366.30 L 793.20 369.10 L 790.00 371.30 L 787.70 372.00 L 786.10 372.10 L 782.90 371.40 L 780.10 369.70 L 777.90 366.50 L 777.20 364.20 L 777.30 361.00 L 777.80 359.40 L 779.50 356.60 L 780.70 355.50 L 782.70 354.30 L 786.60 353.60 L 789.80 354.30 L 792.60 356.00 L 793.70 357.20 L 794.90 359.20 L 795.50 361.50 L 795.60 363.10 L 794.90 366.30" fill="#aad5ff" fill-rule="evenodd" group-id="1,2,4,9" id="Fill-31" node-id="58" stroke="none" target-height="18.5" target-width="18.399963" target-x="777.2" target-y="353.6"></path><path d="M 285.20 363.10 L 283.00 364.00 L 281.90 365.00 L 279.60 369.20 L 278.60 372.30 L 277.00 380.30 L 276.40 389.70 L 275.90 380.30 L 274.30 372.30 L 273.20 369.20 L 270.90 365.00 L 269.80 364.00 L 267.70 363.10 L 269.80 362.30 L 270.90 361.20 L 273.20 357.10 L 274.30 353.90 L 275.90 345.90 L 276.40 336.50 L 277.00 345.90 L 278.60 353.90 L 279.60 357.10 L 281.90 361.20 L 283.00 362.30 L 285.20 363.10" fill="#d6eeff" fill-rule="evenodd" group-id="1,2,4,9" id="Fill-33" node-id="59" stroke="none" target-height="53.200012" target-width="17.5" target-x="267.7" target-y="336.5"></path><path d="M 127.00 420.10 L 126.80 421.80 L 126.20 423.30 L 125.20 424.60 L 123.90 425.60 L 122.40 426.20 L 120.70 426.40 L 119.00 426.20 L 117.50 425.60 L 116.20 424.60 L 115.20 423.30 L 114.60 421.80 L 114.40 420.10 L 114.60 418.40 L 115.20 416.90 L 116.20 415.60 L 117.50 414.60 L 119.00 414.00 L 120.70 413.80 L 122.40 414.00 L 123.90 414.60 L 125.20 415.60 L 126.20 416.90 L 126.80 418.40 L 127.00 420.10" fill="#c3e4ff" fill-rule="evenodd" group-id="1,2,4,9" id="Fill-35" node-id="60" stroke="none" target-height="12.600006" target-width="12.599998" target-x="114.4" target-y="413.8"></path><path d="M 412.90 405.50 L 412.60 407.20 L 412.00 408.70 L 411.00 410.00 L 409.70 411.00 L 408.30 411.60 L 406.60 411.80 L 404.80 411.60 L 403.40 411.00 L 402.10 410.00 L 401.10 408.70 L 400.50 407.20 L 400.20 405.50 L 400.50 403.80 L 401.10 402.30 L 402.10 401.00 L 403.40 400.00 L 404.80 399.40 L 406.60 399.20 L 408.30 399.40 L 409.70 400.00 L 411.00 401.00 L 412.00 402.30 L 412.60 403.80 L 412.90 405.50" fill="#c3e4ff" fill-rule="evenodd" group-id="1,2,4,9" id="Fill-37" node-id="61" stroke="none" target-height="12.599976" target-width="12.699982" target-x="400.2" target-y="399.2"></path><path d="M 356.00 198.70 L 355.30 202.50 L 353.50 205.60 L 350.70 208.00 L 349.00 208.80 L 345.30 209.40 L 341.60 208.80 L 339.90 208.00 L 337.10 205.60 L 335.30 202.50 L 334.60 198.70 L 335.30 195.00 L 337.10 191.80 L 339.90 189.50 L 341.60 188.70 L 345.30 188.00 L 349.00 188.70 L 352.20 190.60 L 354.50 193.30 L 355.30 195.00 L 356.00 198.70" fill="#aad5ff" fill-rule="evenodd" group-id="1,2,4,9" id="Fill-39" node-id="62" stroke="none" target-height="21.399994" target-width="21.399994" target-x="334.6" target-y="188"></path><path d="M 437.20 40.40 L 437.00 42.10 L 436.40 43.60 L 435.40 44.80 L 434.10 45.80 L 432.60 46.50 L 430.90 46.70 L 429.20 46.50 L 427.70 45.80 L 426.40 44.80 L 425.40 43.60 L 424.80 42.10 L 424.60 40.40 L 424.80 38.70 L 425.40 37.20 L 426.40 35.90 L 427.70 34.90 L 429.20 34.30 L 430.90 34.10 L 432.60 34.30 L 434.10 34.90 L 435.40 35.90 L 436.40 37.20 L 437.00 38.70 L 437.20 40.40" fill="#d6eeff" fill-rule="evenodd" group-id="1,2,4,9" id="Fill-41" node-id="63" stroke="none" target-height="12.600002" target-width="12.600006" target-x="424.6" target-y="34.1"></path><path d="M 282.80 104.00 L 282.50 105.70 L 281.90 107.20 L 280.90 108.50 L 279.60 109.50 L 278.10 110.10 L 276.40 110.30 L 274.70 110.10 L 273.20 109.50 L 272.00 108.50 L 271.00 107.20 L 270.30 105.70 L 270.10 104.00 L 270.30 102.30 L 271.00 100.80 L 272.00 99.50 L 273.20 98.50 L 274.70 97.90 L 276.40 97.70 L 278.10 97.90 L 279.60 98.50 L 280.90 99.50 L 281.90 100.80 L 282.50 102.30 L 282.80 104.00" fill="#d6eeff" fill-rule="evenodd" group-id="1,2,4,9" id="Fill-43" node-id="64" stroke="none" target-height="12.600006" target-width="12.699982" target-x="270.1" target-y="97.7"></path><path d="M 20.00 44.30 L 19.80 46.00 L 19.20 47.50 L 18.20 48.80 L 16.90 49.80 L 15.40 50.40 L 13.70 50.70 L 12.00 50.40 L 10.50 49.80 L 9.20 48.80 L 8.20 47.50 L 7.60 46.00 L 7.40 44.30 L 7.60 42.60 L 8.20 41.10 L 9.20 39.90 L 10.50 38.90 L 12.00 38.20 L 13.70 38.00 L 15.40 38.20 L 16.90 38.90 L 18.20 39.90 L 19.20 41.10 L 19.80 42.60 L 20.00 44.30" fill="#d6eeff" fill-rule="evenodd" group-id="1,2,4,9" id="Fill-45" node-id="65" stroke="none" target-height="12.700001" target-width="12.6" target-x="7.4" target-y="38"></path><path d="M 1094.70 25.40 L 1094.40 27.10 L 1093.80 28.50 L 1092.80 29.80 L 1091.50 30.80 L 1090.10 31.40 L 1088.30 31.70 L 1086.60 31.40 L 1085.10 30.80 L 1083.90 29.80 L 1082.90 28.50 L 1082.30 27.10 L 1082.00 25.40 L 1082.30 23.60 L 1082.90 22.20 L 1083.90 20.90 L 1085.10 19.90 L 1086.60 19.30 L 1088.30 19.00 L 1090.10 19.30 L 1091.50 19.90 L 1092.80 20.90 L 1093.80 22.20 L 1094.40 23.60 L 1094.70 25.40" fill="#d6eeff" fill-rule="evenodd" group-id="1,2,4,9" id="Fill-47" node-id="66" stroke="none" target-height="12.700001" target-width="12.699951" target-x="1082" target-y="19"></path><path d="M 1169.60 134.30 L 1169.40 136.10 L 1168.80 137.50 L 1167.80 138.80 L 1166.50 139.80 L 1165.00 140.40 L 1163.30 140.70 L 1161.60 140.40 L 1160.10 139.80 L 1158.80 138.80 L 1157.80 137.50 L 1157.20 136.10 L 1157.00 134.30 L 1157.20 132.60 L 1157.80 131.10 L 1158.80 129.90 L 1160.10 128.90 L 1161.60 128.30 L 1163.30 128.00 L 1165.00 128.30 L 1166.50 128.90 L 1167.80 129.90 L 1168.80 131.10 L 1169.40 132.60 L 1169.60 134.30" fill="#d6eeff" fill-rule="evenodd" group-id="1,2,4,9" id="Fill-49" node-id="67" stroke="none" target-height="12.699997" target-width="12.599976" target-x="1157" target-y="128"></path><path d="M 841.80 221.10 L 841.50 222.80 L 840.90 224.30 L 839.90 225.60 L 838.60 226.60 L 837.10 227.20 L 835.40 227.40 L 833.70 227.20 L 832.20 226.60 L 830.00 224.30 L 829.30 222.80 L 829.10 221.10 L 829.30 219.40 L 830.00 217.90 L 831.00 216.60 L 832.20 215.60 L 833.70 215.00 L 835.40 214.80 L 837.10 215.00 L 838.60 215.60 L 839.90 216.60 L 840.90 217.90 L 841.50 219.40 L 841.80 221.10" fill="#d6eeff" fill-rule="evenodd" group-id="1,2,4,9" id="Fill-51" node-id="68" stroke="none" target-height="12.599991" target-width="12.700012" target-x="829.1" target-y="214.8"></path><path d="M 862.10 38.00 L 861.90 39.70 L 861.30 41.20 L 860.30 42.50 L 859.00 43.50 L 857.50 44.10 L 855.80 44.30 L 854.10 44.10 L 852.60 43.50 L 851.30 42.50 L 850.30 41.20 L 849.70 39.70 L 849.50 38.00 L 849.70 36.30 L 850.30 34.80 L 851.30 33.50 L 852.60 32.50 L 854.10 31.90 L 855.80 31.70 L 857.50 31.90 L 859.00 32.50 L 860.30 33.50 L 861.30 34.80 L 861.90 36.30 L 862.10 38.00" fill="#d6eeff" fill-rule="evenodd" group-id="1,2,4,9" id="Fill-53" node-id="69" stroke="none" target-height="12.599998" target-width="12.599976" target-x="849.5" target-y="31.7"></path><path d="M 1132.90 425.60 L 1132.70 427.30 L 1132.00 428.80 L 1131.10 430.10 L 1129.80 431.10 L 1128.30 431.70 L 1126.60 431.90 L 1124.90 431.70 L 1123.40 431.10 L 1122.10 430.10 L 1121.10 428.80 L 1120.50 427.30 L 1120.30 425.60 L 1120.50 423.90 L 1121.10 422.40 L 1122.10 421.10 L 1123.40 420.10 L 1124.90 419.50 L 1126.60 419.30 L 1128.30 419.50 L 1129.80 420.10 L 1131.10 421.10 L 1132.00 422.40 L 1132.70 423.90 L 1132.90 425.60" fill="#c3e4ff" fill-rule="evenodd" group-id="1,2,4,9" id="Fill-55" node-id="70" stroke="none" target-height="12.600006" target-width="12.599976" target-x="1120.3" target-y="419.3"></path><path d="M 542.40 44.30 L 541.10 44.60 L 539.80 45.40 L 538.40 46.80 L 536.10 50.80 L 535.00 53.70 L 533.80 58.20 L 532.80 63.80 L 532.20 69.70 L 531.90 76.20 L 531.70 69.70 L 531.10 63.80 L 530.10 58.20 L 528.90 53.70 L 527.80 50.80 L 525.50 46.80 L 524.10 45.40 L 522.80 44.60 L 521.40 44.30 L 522.80 44.10 L 524.10 43.30 L 525.50 41.80 L 527.80 37.90 L 528.90 35.00 L 530.10 30.40 L 531.10 24.90 L 531.70 19.00 L 531.90 12.50 L 532.20 19.00 L 532.80 24.90 L 533.80 30.40 L 535.00 35.00 L 536.10 37.90 L 538.40 41.80 L 539.80 43.30 L 541.10 44.10 L 542.40 44.30" fill="#e8f6ff" fill-rule="evenodd" group-id="1,2,4,9" id="Fill-57" node-id="71" stroke="none" target-height="63.699997" target-width="21" target-x="521.4" target-y="12.5"></path><path d="M 874.80 431.90 L 873.20 432.20 L 871.60 433.20 L 869.90 435.00 L 867.10 439.70 L 865.80 443.20 L 864.30 448.70 L 863.10 455.50 L 862.40 462.60 L 862.10 470.50 L 861.80 462.60 L 861.10 455.50 L 859.90 448.70 L 858.40 443.20 L 857.10 439.70 L 854.40 435.00 L 852.70 433.20 L 851.00 432.20 L 849.40 431.90 L 851.00 431.60 L 852.70 430.60 L 854.40 428.90 L 857.10 424.10 L 858.40 420.60 L 859.90 415.10 L 861.10 408.40 L 861.80 401.30 L 862.10 393.40 L 862.40 401.30 L 863.10 408.40 L 864.30 415.10 L 865.80 420.60 L 867.10 424.10 L 869.90 428.90 L 871.60 430.60 L 873.20 431.60 L 874.80 431.90" fill="#e8f6ff" fill-rule="evenodd" group-id="1,2,4,9" id="Fill-59" node-id="72" stroke="none" target-height="77.100006" target-width="25.399963" target-x="849.4" target-y="393.4"></path><path d="M 373.60 505.90 L 372.10 506.20 L 370.60 507.10 L 369.10 508.70 L 366.60 513.10 L 365.40 516.30 L 364.00 521.30 L 362.90 527.50 L 362.20 534.10 L 361.90 541.30 L 361.70 534.10 L 361.00 527.50 L 359.90 521.30 L 358.50 516.30 L 357.30 513.10 L 354.80 508.70 L 353.30 507.10 L 351.80 506.20 L 350.30 505.90 L 351.80 505.60 L 353.30 504.70 L 354.80 503.10 L 357.30 498.70 L 358.50 495.50 L 359.90 490.50 L 361.00 484.30 L 361.70 477.70 L 361.90 470.50 L 362.20 477.70 L 362.90 484.30 L 364.00 490.50 L 365.40 495.50 L 366.60 498.70 L 369.10 503.10 L 370.60 504.70 L 372.10 505.60 L 373.60 505.90" fill="#d6eeff" fill-rule="evenodd" group-id="1,2,4,9" id="Fill-61" node-id="73" stroke="none" target-height="70.79999" target-width="23.300018" target-x="350.3" target-y="470.5"></path><path d="M 1163.30 289.60 L 1162.10 289.80 L 1160.80 290.50 L 1159.60 291.80 L 1157.00 296.50 L 1155.80 300.00 L 1154.00 309.10 L 1153.40 319.80 L 1152.70 309.10 L 1150.90 300.00 L 1149.70 296.50 L 1147.10 291.80 L 1145.90 290.50 L 1144.60 289.80 L 1143.40 289.60 L 1144.60 289.30 L 1145.90 288.60 L 1147.10 287.40 L 1149.70 282.70 L 1150.90 279.10 L 1152.70 270.10 L 1153.40 259.40 L 1154.00 270.10 L 1155.80 279.10 L 1157.00 282.70 L 1159.60 287.40 L 1160.80 288.60 L 1162.10 289.30 L 1163.30 289.60" fill="#d6eeff" fill-rule="evenodd" group-id="1,2,4,9" id="Fill-63" node-id="74" stroke="none" target-height="60.399994" target-width="19.900024" target-x="1143.4" target-y="259.4"></path><path d="M 668.00 527.50 L 667.80 529.00 L 666.40 531.30 L 664.10 532.70 L 662.60 532.90 L 659.90 532.20 L 657.90 530.20 L 657.40 529.00 L 657.20 527.50 L 657.90 524.80 L 659.90 522.80 L 662.60 522.10 L 664.10 522.30 L 666.40 523.70 L 667.80 526.00 L 668.00 527.50" fill="#d6eeff" fill-rule="evenodd" group-id="1,2,4,9" id="Fill-65" node-id="75" stroke="none" target-height="10.800049" target-width="10.799988" target-x="657.2" target-y="522.1"></path><path d="M 596.80 149.70 L 596.60 151.70 L 595.80 153.50 L 594.60 155.10 L 593.00 156.30 L 591.20 157.00 L 589.20 157.30 L 587.10 157.00 L 585.30 156.30 L 583.80 155.10 L 582.60 153.50 L 581.80 151.70 L 581.50 149.70 L 581.80 147.60 L 582.60 145.80 L 583.80 144.20 L 585.30 143.00 L 587.10 142.30 L 589.20 142.00 L 591.20 142.30 L 593.00 143.00 L 594.60 144.20 L 595.80 145.80 L 596.60 147.60 L 596.80 149.70" fill="#d6eeff" fill-rule="evenodd" group-id="1,2,4,9" id="Fill-67" node-id="76" stroke="none" target-height="15.300003" target-width="15.299988" target-x="581.5" target-y="142"></path><path d="M 476.90 111.30 L 476.70 112.60 L 475.50 114.60 L 473.40 115.80 L 472.10 116.00 L 469.70 115.40 L 468.00 113.70 L 467.60 112.60 L 467.40 111.30 L 468.00 108.90 L 469.70 107.20 L 472.10 106.60 L 473.40 106.70 L 475.50 107.90 L 476.70 110.00 L 476.90 111.30" fill="#c3e4ff" fill-rule="evenodd" group-id="1,2,4,9" id="Fill-69" node-id="77" stroke="none" target-height="9.400002" target-width="9.5" target-x="467.4" target-y="106.6"></path><path d="M 675.20 51.80 L 675.00 54.40 L 674.40 56.70 L 673.30 58.80 L 672.00 60.80 L 670.30 62.40 L 668.40 63.80 L 666.20 64.80 L 663.90 65.50 L 661.40 65.70 L 658.80 65.50 L 656.50 64.80 L 654.40 63.80 L 652.40 62.40 L 649.40 58.80 L 648.40 56.70 L 647.80 54.40 L 647.50 51.80 L 647.70 49.30 L 648.40 47.00 L 649.40 44.80 L 650.80 42.90 L 654.40 39.90 L 656.50 38.80 L 658.80 38.20 L 661.40 38.00 L 663.90 38.20 L 666.20 38.80 L 668.40 39.90 L 670.30 41.20 L 673.30 44.80 L 674.40 47.00 L 675.00 49.30 L 675.20 51.80" fill="#d6eeff" fill-rule="evenodd" group-id="1,2,4,9" id="Fill-71" node-id="78" stroke="none" target-height="27.699997" target-width="27.700012" target-x="647.5" target-y="38"></path><path d="M 1038.10 532.90 L 1037.80 534.80 L 1037.10 536.40 L 1036.00 537.90 L 1034.60 539.00 L 1032.90 539.70 L 1031.10 539.90 L 1029.20 539.70 L 1027.60 539.00 L 1026.10 537.90 L 1025.00 536.40 L 1024.30 534.80 L 1024.10 532.90 L 1024.30 531.10 L 1025.00 529.40 L 1026.10 528.00 L 1027.60 526.90 L 1029.20 526.20 L 1031.10 525.90 L 1032.90 526.20 L 1034.60 526.90 L 1036.00 528.00 L 1037.10 529.40 L 1037.80 531.10 L 1038.10 532.90" fill="#aad5ff" fill-rule="evenodd" group-id="1,2,4,9" id="Fill-73" node-id="79" stroke="none" target-height="14" target-width="14" target-x="1024.1" target-y="525.9"></path><path d="M 238.10 517.70 L 238.00 518.90 L 236.80 520.80 L 234.90 521.90 L 233.70 522.10 L 231.50 521.50 L 229.90 519.90 L 229.50 518.90 L 229.30 517.70 L 229.90 515.50 L 231.50 513.90 L 233.70 513.30 L 234.90 513.50 L 236.80 514.60 L 238.00 516.50 L 238.10 517.70" fill="#aad5ff" fill-rule="evenodd" group-id="1,2,4,9" id="Fill-75" node-id="80" stroke="none" target-height="8.799988" target-width="8.800003" target-x="229.3" target-y="513.3"></path><path d="M 710.00 242.80 L 709.90 244.00 L 708.70 245.90 L 706.80 247.10 L 705.60 247.20 L 704.40 247.10 L 702.50 245.90 L 701.40 244.00 L 701.20 242.80 L 701.40 241.60 L 702.50 239.70 L 704.40 238.60 L 705.60 238.40 L 706.80 238.60 L 708.70 239.70 L 709.90 241.60 L 710.00 242.80" fill="#aad5ff" fill-rule="evenodd" group-id="1,2,4,9" id="Fill-77" node-id="81" stroke="none" target-height="8.800003" target-width="8.799988" target-x="701.2" target-y="238.4"></path><path d="M 518.00 289.60 L 517.90 290.80 L 516.80 292.70 L 514.80 293.80 L 513.60 294.00 L 511.40 293.40 L 509.90 291.80 L 509.40 290.80 L 509.30 289.60 L 509.90 287.40 L 511.40 285.80 L 513.60 285.20 L 514.80 285.40 L 516.80 286.50 L 517.90 288.40 L 518.00 289.60" fill="#d6eeff" fill-rule="evenodd" group-id="1,2,4,9" id="Fill-79" node-id="82" stroke="none" target-height="8.799988" target-width="8.700012" target-x="509.3" target-y="285.2"></path><path d="M 371.70 214.10 L 371.60 215.30 L 370.40 217.20 L 368.50 218.30 L 367.30 218.50 L 366.20 218.30 L 364.20 217.20 L 363.10 215.30 L 363.00 214.10 L 363.10 212.90 L 364.20 211.00 L 366.20 209.90 L 367.30 209.70 L 368.50 209.90 L 370.40 211.00 L 371.60 212.90 L 371.70 214.10" fill="#d6eeff" fill-rule="evenodd" group-id="1,2,4,9" id="Fill-81" node-id="83" stroke="none" target-height="8.800003" target-width="8.700012" target-x="363" target-y="209.7"></path><path d="M 30.00 452.00 L 29.80 453.20 L 28.70 455.10 L 26.80 456.20 L 25.60 456.40 L 24.40 456.20 L 22.50 455.10 L 21.40 453.20 L 21.20 452.00 L 21.40 450.80 L 22.50 448.90 L 24.40 447.80 L 25.60 447.60 L 26.80 447.80 L 28.70 448.90 L 29.80 450.80 L 30.00 452.00" fill="#d6eeff" fill-rule="evenodd" group-id="1,2,4,9" id="Fill-83" node-id="84" stroke="none" target-height="8.799988" target-width="8.799999" target-x="21.2" target-y="447.6"></path><path d="M 326.50 289.60 L 326.30 290.80 L 325.20 292.70 L 323.30 293.80 L 322.10 294.00 L 320.90 293.80 L 319.00 292.70 L 317.90 290.80 L 317.70 289.60 L 317.90 288.40 L 319.00 286.50 L 320.90 285.40 L 322.10 285.20 L 323.30 285.40 L 325.20 286.50 L 326.30 288.40 L 326.50 289.60" fill="#d6eeff" fill-rule="evenodd" group-id="1,2,4,9" id="Fill-85" node-id="85" stroke="none" target-height="8.799988" target-width="8.799988" target-x="317.7" target-y="285.2"></path><path d="M 137.70 319.80 L 137.50 321.30 L 136.10 323.60 L 133.80 324.90 L 132.40 325.10 L 130.90 324.90 L 128.60 323.60 L 127.20 321.30 L 127.00 319.80 L 127.20 318.40 L 128.60 316.00 L 130.90 314.70 L 132.40 314.50 L 133.80 314.70 L 136.10 316.00 L 137.50 318.40 L 137.70 319.80" fill="#d6eeff" fill-rule="evenodd" group-id="1,2,4,9" id="Fill-87" node-id="86" stroke="none" target-height="10.600006" target-width="10.699997" target-x="127" target-y="314.5"></path><g node-id="270"><g node-id="277"><path d="M 122.60 222.20 L 130.30 222.90 L 137.80 223.10 L 145.20 222.80 L 152.50 222.00 L 159.70 220.70 L 166.70 219.00 L 173.60 216.90 L 180.20 214.30 L 186.70 211.20 L 193.00 207.80 L 199.00 204.10 L 204.80 199.90 L 210.30 195.40 L 215.40 190.50 L 220.30 185.30 L 224.90 179.80 L 229.10 174.00 L 232.90 167.90 L 236.30 161.50 L 239.40 154.90 L 242.00 148.00 L 244.10 141.00 L 245.80 133.60 L 247.10 126.00 L 247.80 118.40 L 248.00 110.90 L 247.70 103.50 L 246.90 96.20 L 245.60 89.00 L 243.90 82.00 L 241.70 75.10 L 239.10 68.50 L 236.10 61.90 L 232.70 55.70 L 228.90 49.70 L 224.80 43.90 L 220.20 38.40 L 215.40 33.20 L 210.20 28.40 L 204.70 23.80 L 198.90 19.60 L 192.80 15.80 L 186.40 12.40 L 179.70 9.30 L 172.90 6.70 L 165.80 4.60 L 158.50 2.90 L 150.90 1.60 L 143.30 0.90 L 135.80 0.70 L 128.40 1.00 L 121.10 1.80 L 113.90 3.10 L 106.90 4.80 L 100.00 6.90 L 93.30 9.50 L 86.80 12.60 L 80.60 16.00 L 74.60 19.70 L 68.80 23.90 L 63.30 28.40 L 58.10 33.30 L 53.30 38.50 L 48.70 44.00 L 44.50 49.80 L 40.70 55.90 L 37.30 62.30 L 34.20 68.90 L 31.60 75.80 L 29.40 82.80 L 27.70 90.20 L 26.50 97.80 L 25.80 105.40 L 25.60 112.90 L 25.90 120.30 L 26.70 127.60 L 28.00 134.80 L 29.70 141.80 L 31.80 148.70 L 34.40 155.30 L 37.40 161.90 L 40.80 168.10 L 44.60 174.10 L 48.80 179.90 L 53.30 185.40 L 58.20 190.60 L 63.40 195.40 L 68.90 200.00 L 74.70 204.20 L 80.80 208.00 L 87.20 211.40 L 93.80 214.50 L 100.70 217.10 L 107.70 219.20 L 115.00 220.90 L 122.60 222.20" fill="#d6eeff" fill-rule="evenodd" group-id="1,2,4,9,20,27" id="Fill-89" node-id="91" stroke="none" target-height="222.40001" target-width="222.4" target-x="25.6" target-y="0.7"></path></g></g><path d="M 176.40 65.00 L 179.50 65.10 L 182.30 64.70 L 185.10 63.80 L 187.60 62.40 L 189.90 60.70 L 191.80 58.60 L 193.40 56.10 L 194.50 53.40 L 195.20 50.40 L 195.30 47.30 L 194.90 44.50 L 194.00 41.70 L 192.70 39.10 L 190.90 36.90 L 188.80 34.90 L 186.40 33.40 L 183.70 32.30 L 180.70 31.60 L 177.60 31.50 L 174.70 31.90 L 171.90 32.80 L 169.40 34.10 L 167.10 35.90 L 165.20 38.00 L 163.60 40.40 L 162.50 43.10 L 161.80 46.10 L 161.70 49.20 L 162.10 52.10 L 163.00 54.90 L 164.40 57.40 L 166.10 59.70 L 168.20 61.60 L 170.70 63.20 L 173.40 64.30 L 176.40 65.00" fill="#e8f6ff" fill-rule="evenodd" group-id="1,2,4,9" id="Fill-92" node-id="92" stroke="none" target-height="33.6" target-width="33.600006" target-x="161.7" target-y="31.5"></path><path d="M 177.60 90.70 L 179.40 90.70 L 181.10 90.30 L 182.60 89.40 L 183.80 88.20 L 184.60 86.70 L 185.10 84.90 L 185.10 83.10 L 184.60 81.50 L 183.80 80.00 L 182.50 78.70 L 181.10 77.90 L 179.30 77.40 L 177.50 77.40 L 175.80 77.90 L 174.30 78.80 L 173.10 80.00 L 172.30 81.40 L 171.80 83.20 L 171.80 85.10 L 172.30 86.70 L 173.10 88.20 L 174.40 89.40 L 175.80 90.20 L 177.60 90.70" fill="#e8f6ff" fill-rule="evenodd" group-id="1,2,4,9" id="Fill-94" node-id="93" stroke="none" target-height="13.299995" target-width="13.300003" target-x="171.8" target-y="77.4"></path><path d="M 102.50 179.30 L 104.40 179.30 L 106.00 178.80 L 107.50 177.90 L 108.70 176.70 L 109.50 175.30 L 110.00 173.50 L 110.00 171.60 L 109.50 170.00 L 108.70 168.50 L 107.50 167.30 L 106.00 166.50 L 104.20 166.00 L 102.40 166.00 L 100.70 166.40 L 99.30 167.30 L 98.00 168.50 L 97.20 170.00 L 96.70 171.80 L 96.70 173.60 L 97.20 175.30 L 98.10 176.70 L 99.30 178.00 L 100.70 178.80 L 102.50 179.30" fill="#e8f6ff" fill-rule="evenodd" group-id="1,2,4,9" id="Fill-96" node-id="94" stroke="none" target-height="13.300003" target-width="13.300003" target-x="96.7" target-y="166"></path><path d="M 67.00 130.40 L 74.60 135.60 L 81.40 138.50 L 86.10 139.60 L 90.40 140.00 L 94.60 139.80 L 98.70 139.10 L 102.60 138.00 L 106.20 136.40 L 109.80 134.60 L 116.00 130.30 L 123.40 123.40 L 129.70 115.60 L 124.40 117.00 L 115.30 118.30 L 107.30 118.10 L 100.60 116.50 L 95.20 113.80 L 93.10 112.00 L 91.30 110.10 L 89.80 108.00 L 88.70 105.60 L 88.00 103.20 L 87.70 100.60 L 87.80 97.80 L 89.20 92.30 L 92.50 86.40 L 97.30 80.90 L 100.50 78.10 L 108.40 72.80 L 112.90 70.50 L 118.20 68.20 L 129.40 64.00 L 133.80 61.80 L 137.50 59.50 L 140.60 57.00 L 143.50 54.10 L 145.90 51.10 L 147.90 47.90 L 149.40 44.60 L 151.00 40.00 L 151.90 35.20 L 152.30 30.30 L 152.20 25.30 L 150.90 15.30 L 149.10 8.00 L 146.90 1.20 L 139.70 0.80 L 132.70 0.80 L 125.80 1.20 L 119.00 2.10 L 112.30 3.40 L 104.10 5.60 L 96.10 8.40 L 88.50 11.70 L 81.10 15.70 L 74.00 20.10 L 67.30 25.10 L 61.00 30.50 L 55.10 36.50 L 50.70 41.50 L 46.60 46.80 L 42.80 52.40 L 39.40 58.20 L 36.30 64.30 L 33.50 70.60 L 31.20 77.00 L 29.20 83.70 L 27.70 90.60 L 26.50 97.80 L 25.80 105.10 L 25.60 112.30 L 25.80 119.40 L 26.50 126.40 L 27.70 133.40 L 29.20 140.10 L 31.20 146.80 L 33.50 153.20 L 36.60 148.50 L 38.60 144.30 L 42.10 131.10 L 43.30 127.90 L 44.80 125.40 L 46.00 124.00 L 47.50 123.00 L 49.20 122.30 L 51.00 122.10 L 53.40 122.50 L 56.30 123.50 L 62.60 127.10 L 67.00 130.40" fill="#c3e4ff" fill-rule="evenodd" group-id="1,2,4,9" id="Fill-98" node-id="95" stroke="none" target-height="152.4" target-width="126.700005" target-x="25.6" target-y="0.8"></path><path d="M 122.60 222.20 L 130.30 222.90 L 137.80 223.10 L 145.20 222.80 L 152.50 222.00 L 159.70 220.70 L 166.70 219.00 L 173.60 216.90 L 180.20 214.30 L 186.70 211.20 L 193.00 207.80 L 199.00 204.10 L 204.80 199.90 L 210.30 195.40 L 215.40 190.50 L 220.30 185.30 L 224.90 179.80 L 229.10 174.00 L 232.90 167.90 L 236.30 161.50 L 239.40 154.90 L 242.00 148.00 L 244.10 141.00 L 245.80 133.60 L 247.10 126.00 L 247.80 117.50 L 248.00 109.10 L 247.40 100.90 L 246.30 92.80 L 244.70 84.80 L 242.40 77.10 L 239.00 81.30 L 236.70 83.00 L 234.00 84.20 L 229.70 84.80 L 224.50 84.00 L 221.50 82.90 L 215.00 79.80 L 212.40 79.00 L 210.10 78.60 L 206.00 79.00 L 204.20 79.70 L 201.20 82.00 L 199.70 84.10 L 198.60 86.60 L 197.80 89.50 L 197.40 95.70 L 198.60 102.40 L 199.90 105.70 L 201.50 108.80 L 203.50 111.80 L 206.00 114.40 L 212.80 119.60 L 216.30 122.90 L 218.40 125.40 L 221.20 130.50 L 222.00 133.20 L 222.20 135.90 L 221.70 138.50 L 219.80 142.20 L 215.80 146.10 L 214.20 147.00 L 210.90 147.70 L 206.70 146.80 L 204.10 145.60 L 197.10 141.20 L 183.40 131.10 L 178.50 128.10 L 173.70 125.80 L 170.40 124.60 L 167.10 124.00 L 163.90 123.90 L 161.50 124.20 L 156.60 126.00 L 154.00 127.60 L 151.30 129.90 L 147.40 134.30 L 146.20 136.50 L 145.00 139.70 L 144.40 142.80 L 144.40 146.10 L 145.60 152.50 L 149.00 160.70 L 159.00 178.80 L 160.50 182.50 L 161.20 185.00 L 161.40 187.20 L 160.60 190.40 L 158.40 192.80 L 156.60 194.00 L 154.00 194.90 L 151.60 195.30 L 149.40 195.20 L 145.20 193.80 L 140.80 190.60 L 138.70 188.40 L 134.60 182.60 L 130.00 186.20 L 122.40 190.70 L 114.00 194.00 L 106.40 195.40 L 102.40 195.50 L 98.40 195.10 L 94.10 194.10 L 91.00 193.00 L 84.70 189.50 L 78.30 184.70 L 75.30 183.00 L 72.10 181.90 L 68.90 181.30 L 65.80 181.30 L 62.70 181.80 L 60.60 182.60 L 56.80 185.30 L 55.10 187.30 L 61.00 193.30 L 67.40 198.80 L 74.20 203.80 L 85.10 210.40 L 96.90 215.70 L 103.10 217.90 L 115.90 221.10 L 122.60 222.20" fill="#c3e4ff" fill-rule="evenodd" group-id="1,2,4,9" id="Fill-100" node-id="96" stroke="none" target-height="146" target-width="192.9" target-x="55.1" target-y="77.1"></path><path d="M 1063.50 168.60 L 1061.90 176.20 L 1059.90 183.40 L 1057.50 190.40 L 1054.50 197.20 L 1051.20 203.70 L 1047.50 210.00 L 1043.40 215.90 L 1038.90 221.60 L 1034.10 226.90 L 1029.00 231.90 L 1023.60 236.60 L 1017.90 240.90 L 1011.90 244.80 L 1005.70 248.40 L 999.30 251.50 L 992.70 254.20 L 985.90 256.60 L 978.90 258.40 L 971.80 259.90 L 964.50 260.80 L 957.10 261.30 L 949.70 261.30 L 942.20 260.80 L 934.50 259.70 L 927.00 258.20 L 919.70 256.10 L 912.70 253.70 L 905.90 250.80 L 899.40 247.40 L 893.10 243.70 L 887.20 239.60 L 881.60 235.10 L 876.20 230.30 L 871.20 225.20 L 866.60 219.80 L 862.20 214.10 L 858.30 208.10 L 854.80 201.90 L 851.60 195.50 L 848.90 188.90 L 846.50 182.10 L 844.70 175.10 L 843.30 168.00 L 842.30 160.70 L 841.80 153.40 L 841.80 145.90 L 842.30 138.40 L 843.40 130.70 L 845.00 123.20 L 847.00 115.90 L 849.40 108.90 L 852.30 102.20 L 855.70 95.60 L 859.40 89.40 L 863.50 83.40 L 868.00 77.80 L 872.80 72.40 L 877.90 67.40 L 883.30 62.80 L 889.00 58.50 L 895.00 54.50 L 901.20 51.00 L 907.60 47.80 L 914.20 45.10 L 921.00 42.80 L 928.00 40.90 L 935.10 39.50 L 942.40 38.50 L 949.80 38.00 L 957.20 38.00 L 964.70 38.60 L 972.40 39.60 L 979.90 41.20 L 987.20 43.20 L 994.20 45.70 L 1001.00 48.60 L 1007.50 51.90 L 1013.80 55.60 L 1019.70 59.70 L 1025.30 64.20 L 1030.70 69.00 L 1035.70 74.10 L 1040.30 79.50 L 1044.70 85.20 L 1048.60 91.20 L 1052.10 97.40 L 1055.30 103.80 L 1058.00 110.40 L 1060.40 117.30 L 1062.20 124.20 L 1063.60 131.30 L 1064.60 138.60 L 1065.10 146.00 L 1065.10 153.40 L 1064.60 160.90 L 1063.50 168.60" fill="#d6eeff" fill-rule="evenodd" group-id="1,2,4,9" id="Fill-102" node-id="97" stroke="none" target-height="223.29999" target-width="223.29999" target-x="841.8" target-y="38"></path><path d="M 1065.10 147.10 L 1050.40 149.60 L 1031.10 151.70 L 1020.30 152.20 L 1000.60 152.10 L 984.10 150.70 L 975.80 149.50 L 967.50 147.80 L 959.10 145.70 L 950.90 143.20 L 942.80 140.10 L 934.90 136.50 L 927.70 132.60 L 916.00 125.50 L 908.40 120.00 L 902.10 114.90 L 896.50 109.70 L 879.10 91.50 L 875.00 87.60 L 870.60 84.00 L 865.50 80.80 L 869.20 76.40 L 877.00 68.20 L 885.70 68.90 L 896.10 70.20 L 903.30 71.50 L 919.40 75.60 L 927.60 78.20 L 936.30 81.50 L 945.40 85.50 L 954.30 90.00 L 963.50 95.30 L 980.90 106.80 L 988.90 111.20 L 996.70 114.90 L 1004.80 118.20 L 1012.70 120.80 L 1020.40 122.80 L 1035.60 125.60 L 1049.90 126.80 L 1062.80 126.90 L 1064.00 133.50 L 1064.70 140.20 L 1065.10 147.10" fill="#e8f6ff" fill-rule="evenodd" group-id="1,2,4,9" id="Fill-104" node-id="98" stroke="none" target-height="84" target-width="199.59998" target-x="865.5" target-y="68.2"></path><path d="M 918.00 155.50 L 909.50 157.80 L 898.70 159.40 L 887.30 159.80 L 881.10 159.60 L 866.50 157.60 L 859.00 155.90 L 850.70 153.50 L 841.80 150.30 L 842.40 137.30 L 843.40 130.70 L 845.00 123.20 L 847.00 115.90 L 849.50 108.80 L 858.90 118.60 L 870.50 129.80 L 883.30 140.80 L 889.90 145.80 L 896.20 149.90 L 904.50 154.10 L 911.00 156.00 L 913.60 156.20 L 918.00 155.50" fill="#e8f6ff" fill-rule="evenodd" group-id="1,2,4,9" id="Fill-106" node-id="99" stroke="none" target-height="51" target-width="76.20001" target-x="841.8" target-y="108.8"></path><path d="M 1057.70 189.90 L 1055.20 195.70 L 1049.40 206.80 L 1046.10 212.10 L 1038.70 221.90 L 1019.20 215.20 L 1008.00 211.90 L 995.60 208.70 L 978.50 205.10 L 960.80 202.70 L 951.90 202.10 L 943.20 201.90 L 934.50 202.20 L 926.10 203.10 L 903.40 207.30 L 886.10 209.00 L 876.50 209.30 L 867.10 209.10 L 858.50 208.50 L 854.60 201.70 L 851.20 194.60 L 848.30 187.30 L 845.90 179.70 L 872.30 178.80 L 894.30 177.10 L 906.10 175.80 L 930.00 172.30 L 941.90 169.90 L 959.40 165.70 L 965.20 164.80 L 970.90 164.40 L 976.60 164.30 L 984.20 164.90 L 991.70 165.90 L 999.10 167.50 L 1006.30 169.50 L 1020.30 174.20 L 1057.70 189.90" fill="#e8f6ff" fill-rule="evenodd" group-id="1,2,4,9" id="Fill-108" node-id="100" stroke="none" target-height="57.59999" target-width="211.79993" target-x="845.9" target-y="164.3"></path><path d="M 1019.50 239.70 L 1009.50 246.30 L 1004.20 249.20 L 978.00 239.40 L 960.10 233.90 L 951.50 231.80 L 943.20 230.20 L 935.70 229.20 L 930.70 229.00 L 922.50 229.50 L 933.60 228.00 L 941.80 227.50 L 950.80 227.40 L 962.20 227.90 L 970.10 228.60 L 988.50 231.40 L 998.10 233.50 L 1008.40 236.20 L 1019.50 239.70" fill="#e8f6ff" fill-rule="evenodd" group-id="1,2,4,9" id="Fill-110" node-id="101" stroke="none" target-height="21.800003" target-width="97" target-x="922.5" target-y="227.4"></path><path d="M 1055.20 103.70 L 1039.90 102.00 L 1030.90 100.40 L 1020.60 98.00 L 1006.50 93.70 L 991.50 87.60 L 983.90 83.90 L 976.20 79.60 L 968.80 74.80 L 961.40 69.30 L 954.10 63.20 L 951.10 60.20 L 949.50 58.00 L 948.70 56.30 L 948.60 55.10 L 949.00 53.90 L 949.90 52.80 L 951.60 52.00 L 954.40 51.30 L 962.90 50.90 L 969.40 51.20 L 979.40 52.30 L 991.70 54.20 L 1019.40 59.50 L 1025.10 64.00 L 1030.50 68.80 L 1035.50 73.90 L 1040.20 79.30 L 1044.50 85.00 L 1048.50 91.00 L 1052.00 97.20 L 1055.20 103.70" fill="#e8f6ff" fill-rule="evenodd" group-id="1,2,4,9" id="Fill-112" node-id="102" stroke="none" target-height="52.799995" target-width="106.599976" target-x="948.6" target-y="50.9"></path><path d="M 966.00 260.70 L 958.30 261.30 L 950.50 261.30 L 942.60 260.80 L 934.50 259.70 L 926.60 258.10 L 919.00 255.90 L 911.60 253.20 L 904.50 250.10 L 897.70 246.50 L 891.30 242.50 L 885.10 238.00 L 879.30 233.20 L 873.80 228.00 L 887.60 229.40 L 895.60 230.70 L 904.90 232.60 L 914.30 235.10 L 924.50 238.50 L 938.10 244.10 L 952.10 251.40 L 959.10 255.70 L 966.00 260.70" fill="#e8f6ff" fill-rule="evenodd" group-id="1,2,4,9" id="Fill-114" node-id="103" stroke="none" target-height="33.299988" target-width="92.20001" target-x="873.8" target-y="228"></path><path d="M 929.30 59.70 L 924.90 59.10 L 913.50 56.70 L 904.50 53.60 L 900.20 51.50 L 912.10 45.90 L 918.20 43.70 L 924.40 54.30 L 928.00 58.80 L 929.30 59.70" fill="#e8f6ff" fill-rule="evenodd" group-id="1,2,4,9" id="Fill-116" node-id="104" stroke="none" target-height="16" target-width="29.099976" target-x="900.2" target-y="43.7"></path><path d="M 930.20 59.70 L 929.40 59.70" fill="#e8f6ff" fill-rule="evenodd" group-id="1,2,4,9" id="Fill-118" node-id="105" stroke="none" target-height="0" target-width="0.7999878" target-x="929.4" target-y="59.7"></path><path d="M 1093.60 151.10 L 1116.50 159.10 L 1135.70 166.90 L 1150.50 174.30 L 1155.60 177.40 L 1163.00 182.80 L 1165.50 185.20 L 1167.80 188.00 L 1169.10 190.50 L 1169.70 192.80 L 1169.70 195.00 L 1169.10 196.80 L 1167.90 198.60 L 1166.20 200.40 L 1163.70 202.10 L 1160.20 203.80 L 1156.00 205.30 L 1144.40 208.10 L 1136.70 209.20 L 1126.60 210.20 L 1114.90 210.80 L 1101.30 211.10 L 1072.70 210.50 L 1039.80 208.30 L 1003.60 204.50 L 965.60 199.20 L 945.50 195.90 L 925.40 192.30 L 887.90 184.60 L 852.50 176.10 L 820.70 167.10 L 793.60 158.20 L 780.80 153.40 L 770.00 148.90 L 760.90 144.60 L 754.00 140.90 L 744.00 134.50 L 740.50 131.70 L 737.80 128.90 L 736.00 126.40 L 734.90 124.20 L 734.50 122.10 L 734.50 120.10 L 735.00 118.50 L 735.90 116.90 L 737.40 115.30 L 739.40 113.70 L 742.10 112.20 L 745.40 110.70 L 754.60 108.10 L 760.70 106.90 L 777.90 104.90 L 799.60 104.00 L 825.00 104.40" fill="none" group-id="1,2,4,9" id="Stroke-120" node-id="106" stroke="#aad5ff" stroke-linecap="round" stroke-width="19.6" target-height="107.100006" target-width="435.19995" target-x="734.5" target-y="104"></path></g><g node-id="260"><g node-id="271"><g node-id="279"><path d="M 1004.90 684.80 L 996.10 685.10 L 930.40 685.70 L 656.50 686.40 L 324.60 686.20 L 206.80 685.70 L 133.10 684.90 L 132.30 684.80 L 133.10 684.70 L 141.10 684.50 L 206.80 683.90 L 480.70 683.20 L 812.60 683.50 L 970.60 684.20 L 1004.90 684.80" fill="#757a89" fill-rule="evenodd" group-id="1,2,4,10,21,29" id="Fill-123" node-id="112" stroke="none" target-height="3.2000122" target-width="872.60004" target-x="132.3" target-y="683.2"></path></g></g><path d="M 347.30 396.60 L 347.30 267.10 L 269.10 396.60 L 347.30 396.60 Z M 337.70 458.20 L 195.30 458.20 L 195.30 409.80 L 340.30 171.80 L 405.40 171.80 L 405.40 396.60 L 450.10 396.60 L 450.10 458.20 L 405.40 458.20 L 405.40 539.80 L 337.70 539.80 L 337.70 458.20 Z" fill="#2438b7" fill-rule="evenodd" group-id="1,2,4,10" id="Fill-126" node-id="113" stroke="none" target-height="368" target-width="254.8" target-x="195.3" target-y="171.8"></path><path d="M 655.50 442.90 L 658.90 436.40 L 662.00 429.30 L 664.80 421.50 L 667.20 412.90 L 669.30 403.60 L 671.00 393.40 L 672.20 382.30 L 673.00 370.30 L 673.30 357.10 L 673.00 343.90 L 672.20 331.70 L 671.00 320.50 L 669.30 310.20 L 667.30 300.70 L 664.90 292.10 L 662.10 284.10 L 659.00 276.90 L 655.70 270.30 L 652.10 264.50 L 648.40 259.40 L 644.50 255.00 L 640.40 251.10 L 636.10 247.80 L 631.60 245.10 L 626.90 242.80 L 621.90 241.00 L 616.60 239.70 L 611.10 239.00 L 605.10 238.70 L 599.10 239.00 L 593.60 239.70 L 588.30 241.00 L 583.30 242.80 L 578.60 245.10 L 574.10 247.80 L 569.80 251.10 L 565.70 255.00 L 561.80 259.40 L 558.10 264.50 L 554.50 270.30 L 551.20 276.90 L 548.10 284.10 L 545.30 292.10 L 542.90 300.70 L 540.90 310.20 L 539.20 320.50 L 538.00 331.70 L 537.20 343.90 L 537.00 357.10 L 537.20 370.30 L 538.00 382.30 L 539.20 393.40 L 540.90 403.60 L 543.00 412.90 L 545.40 421.50 L 548.20 429.30 L 551.30 436.40 L 554.70 442.90 L 558.30 448.60 L 562.10 453.60 L 566.00 458.00 L 570.10 461.80 L 574.40 465.00 L 578.80 467.70 L 583.50 470.00 L 588.50 471.70 L 593.70 473.00 L 599.20 473.70 L 605.10 474.00 L 611.00 473.70 L 616.50 473.00 L 621.70 471.70 L 626.70 470.00 L 631.40 467.70 L 635.80 465.00 L 640.10 461.80 L 644.20 458.00 L 648.10 453.60 L 651.90 448.60 L 655.50 442.90 M 533.30 524.80 L 526.90 519.70 L 520.80 514.00 L 514.90 507.80 L 509.40 501.20 L 504.20 493.90 L 499.20 486.00 L 494.60 477.50 L 490.20 468.40 L 486.20 458.50 L 482.50 447.90 L 479.20 436.80 L 476.40 425.10 L 474.00 412.70 L 472.20 399.70 L 470.80 385.90 L 470.00 371.40 L 469.70 356.10 L 470.00 340.60 L 470.80 325.90 L 472.20 312.10 L 474.00 299.00 L 476.30 286.60 L 479.10 274.90 L 482.30 263.90 L 485.90 253.40 L 489.90 243.60 L 494.30 234.50 L 498.90 226.10 L 503.80 218.20 L 509.00 210.90 L 514.50 204.20 L 520.30 198.00 L 526.40 192.30 L 532.80 187.10 L 539.70 182.30 L 546.80 178.00 L 554.20 174.30 L 561.90 171.20 L 569.80 168.60 L 578.10 166.60 L 586.70 165.10 L 595.70 164.20 L 605.10 163.90 L 614.50 164.20 L 623.50 165.10 L 632.10 166.60 L 640.30 168.60 L 648.30 171.20 L 655.90 174.30 L 663.20 178.00 L 670.30 182.30 L 677.20 187.10 L 683.50 192.30 L 689.60 198.00 L 695.30 204.20 L 700.80 210.90 L 706.00 218.20 L 710.90 226.00 L 715.50 234.50 L 719.80 243.60 L 723.80 253.40 L 727.40 263.90 L 730.70 274.90 L 733.40 286.60 L 735.80 299.00 L 737.60 312.10 L 739.00 325.90 L 739.80 340.60 L 740.10 356.10 L 739.80 371.40 L 739.00 385.90 L 737.60 399.70 L 735.70 412.70 L 733.40 425.10 L 730.50 436.80 L 727.30 447.90 L 723.60 458.50 L 719.50 468.40 L 715.20 477.50 L 710.50 486.00 L 705.60 493.90 L 700.40 501.20 L 694.90 507.90 L 689.10 514.00 L 683.10 519.70 L 676.70 524.80 L 669.90 529.60 L 662.80 533.80 L 655.50 537.40 L 647.90 540.50 L 640.00 543.10 L 631.80 545.10 L 623.30 546.50 L 614.40 547.40 L 605.10 547.70 L 595.80 547.40 L 586.90 546.50 L 578.40 545.10 L 570.20 543.10 L 562.30 540.50 L 554.60 537.40 L 547.30 533.80 L 540.20 529.60 L 533.30 524.80" fill="#2438b7" fill-rule="evenodd" group-id="1,2,4,10" id="Fill-128" node-id="114" stroke="none" target-height="383.80002" target-width="270.39996" target-x="469.7" target-y="163.9"></path><path d="M 911.60 396.60 L 911.60 267.10 L 833.40 396.60 L 911.60 396.60 Z M 902.00 458.20 L 759.60 458.20 L 759.60 409.80 L 904.60 171.80 L 969.70 171.80 L 969.70 396.60 L 1014.40 396.60 L 1014.40 458.20 L 969.70 458.20 L 969.70 539.80 L 902.00 539.80 L 902.00 458.20 Z" fill="#2438b7" fill-rule="evenodd" group-id="1,2,4,10" id="Fill-130" node-id="115" stroke="none" target-height="368" target-width="254.80005" target-x="759.6" target-y="171.8"></path><path d="M 548.20 547.70 L 605.90 547.70 L 605.90 163.90 L 548.20 163.90 Z" fill="#2438b7" fill-rule="evenodd" group-id="1,2,4,10" id="Fill-132" node-id="116" stroke="none" target-height="383.80002" target-width="57.700012" target-x="548.2" target-y="163.9"></path><path d="M 347.30 396.60 L 347.30 267.10 L 269.10 396.60 L 347.30 396.60 Z M 337.70 458.20 L 195.30 458.20 L 195.30 409.80 L 340.30 171.80 L 405.40 171.80 L 405.40 396.60 L 450.10 396.60 L 450.10 458.20 L 405.40 458.20 L 405.40 539.80 L 337.70 539.80 L 337.70 458.20 Z" fill="#2438b7" fill-rule="evenodd" group-id="1,2,4,10" id="Fill-134" node-id="117" stroke="none" target-height="368" target-width="254.8" target-x="195.3" target-y="171.8"></path><path d="M 911.60 396.60 L 911.60 267.10 L 833.40 396.60 L 911.60 396.60 Z M 902.00 458.20 L 759.60 458.20 L 759.60 409.80 L 904.60 171.80 L 969.70 171.80 L 969.70 396.60 L 1014.40 396.60 L 1014.40 458.20 L 969.70 458.20 L 969.70 539.80 L 902.00 539.80 L 902.00 458.20 Z" fill="#2438b7" fill-rule="evenodd" group-id="1,2,4,10" id="Fill-135" node-id="118" stroke="none" target-height="368" target-width="254.80005" target-x="759.6" target-y="171.8"></path></g><path d="M 913.80 539.80 L 969.70 539.80 L 969.70 458.20 L 913.80 458.20 Z" fill="url(#linearGradient-13)" fill-rule="evenodd" group-id="1,2,4" id="Fill-137" node-id="119" stroke="none" target-height="81.599976" target-width="55.900024" target-x="913.8" target-y="458.2"></path><path d="M 349.50 539.80 L 405.40 539.80 L 405.40 458.20 L 349.50 458.20 Z" fill="url(#linearGradient-14)" fill-rule="evenodd" group-id="1,2,4" id="Fill-139" node-id="120" stroke="none" target-height="81.599976" target-width="55.899994" target-x="349.5" target-y="458.2"></path><g node-id="261"><g node-id="273"><path d="M 548.20 163.90 L 548.20 177.30 L 537.80 183.50 L 532.80 187.10 L 526.40 192.30 L 520.30 198.00 L 514.50 204.20 L 509.00 210.90 L 503.80 218.20 L 498.90 226.10 L 494.30 234.50 L 489.90 243.60 L 485.90 253.40 L 482.30 263.90 L 479.10 274.90 L 476.30 286.60 L 474.00 299.00 L 472.20 312.10 L 470.80 325.90 L 470.00 340.60 L 469.70 356.10 L 470.00 371.40 L 470.80 385.90 L 472.20 399.70 L 474.00 412.70 L 476.40 425.10 L 479.20 436.80 L 482.50 447.90 L 486.20 458.50 L 490.20 468.40 L 494.60 477.50 L 499.20 486.00 L 504.20 493.90 L 509.40 501.20 L 514.90 507.90 L 520.80 514.00 L 526.90 519.70 L 533.30 524.80 L 538.10 528.30 L 548.20 534.30 L 548.20 547.70 L 605.10 547.70 L 614.40 547.40 L 623.30 546.50 L 631.80 545.10 L 640.00 543.10 L 647.90 540.50 L 655.50 537.40 L 662.80 533.80 L 669.90 529.60 L 676.70 524.80 L 683.10 519.70 L 689.10 514.00 L 694.90 507.90 L 700.40 501.20 L 705.60 493.90 L 710.50 486.00 L 715.20 477.50 L 719.50 468.40 L 723.60 458.50 L 727.30 447.90 L 730.50 436.80 L 733.40 425.10 L 735.70 412.70 L 737.60 399.70 L 739.00 385.90 L 739.80 371.40 L 740.10 356.10 L 739.80 340.60 L 739.00 325.90 L 737.60 312.10 L 735.80 299.00 L 733.40 286.60 L 730.70 274.90 L 727.40 263.90 L 723.80 253.40 L 719.80 243.60 L 715.50 234.50 L 710.90 226.00 L 706.00 218.20 L 700.80 210.90 L 695.30 204.20 L 689.60 198.00 L 683.50 192.30 L 677.20 187.10 L 670.30 182.30 L 663.20 178.00 L 655.90 174.30 L 648.30 171.20 L 640.30 168.60 L 632.10 166.60 L 623.50 165.10 L 614.50 164.20 L 605.10 163.90 L 548.20 163.90 Z" fill="url(#linearGradient-17)" fill-rule="evenodd" group-id="1,2,4,11,23" id="Fill-141" node-id="125" stroke="none" target-height="383.80002" target-width="270.39996" target-x="469.7" target-y="163.9"></path></g></g><g node-id="262"><path d="M 617.30 357.10 L 617.10 370.30 L 616.30 382.30 L 615.00 393.40 L 613.40 403.60 L 611.30 412.90 L 608.80 421.50 L 606.10 429.30 L 603.00 436.40 L 599.50 442.90 L 596.00 448.60 L 592.20 453.60 L 588.30 458.00 L 584.20 461.80 L 579.90 465.00 L 575.50 467.70 L 570.70 470.00 L 565.80 471.70 L 560.60 473.00 L 555.10 473.70 L 549.20 474.00 L 543.30 473.70 L 537.80 473.00 L 532.60 471.70 L 527.60 470.00 L 522.90 467.70 L 518.40 465.00 L 514.20 461.80 L 510.10 458.00 L 506.10 453.60 L 502.40 448.60 L 498.80 442.90 L 495.40 436.40 L 492.30 429.30 L 489.50 421.50 L 487.10 412.90 L 485.00 403.60 L 483.30 393.40 L 482.10 382.30 L 481.30 370.30 L 481.00 357.10 L 481.30 343.90 L 482.10 331.70 L 483.30 320.50 L 485.00 310.20 L 487.00 300.70 L 489.40 292.10 L 492.20 284.10 L 495.20 276.90 L 498.60 270.30 L 502.10 264.50 L 505.90 259.40 L 509.80 255.00 L 513.90 251.10 L 518.10 247.80 L 522.60 245.10 L 527.40 242.80 L 532.40 241.00 L 537.60 239.70 L 543.20 239.00 L 549.20 238.70 L 555.10 239.00 L 560.70 239.70 L 566.00 241.00 L 571.00 242.80 L 575.70 245.10 L 580.20 247.80 L 584.50 251.10 L 588.60 255.00 L 592.50 259.40 L 596.20 264.50 L 599.80 270.30 L 603.10 276.90 L 606.20 284.10 L 608.90 292.10 L 611.40 300.70 L 613.40 310.20 L 615.10 320.50 L 616.30 331.70 L 617.10 343.90 L 617.30 357.10" fill="#0d0d0f" fill-rule="evenodd" group-id="1,2,4,12" id="Fill-144" node-id="127" stroke="none" target-height="235.3" target-width="136.29999" target-x="481" target-y="238.7"></path><path d="M 543.40 264.70 L 541.90 265.40 L 540.20 267.90 L 539.00 273.00 L 538.80 276.00 L 538.60 273.00 L 537.40 267.90 L 535.70 265.40 L 534.20 264.70 L 535.70 264.00 L 537.40 261.50 L 538.60 256.40 L 538.80 253.40 L 539.00 256.40 L 540.20 261.50 L 541.90 264.00 L 543.40 264.70" fill="#ffffff" fill-rule="evenodd" group-id="1,2,4,12" id="Fill-146" node-id="128" stroke="none" target-height="22.600006" target-width="9.200012" target-x="534.2" target-y="253.4"></path><path d="M 579.10 287.60 L 577.80 287.90 L 576.50 288.70 L 575.30 290.20 L 573.40 294.10 L 571.80 301.20 L 571.50 306.30 L 571.20 301.20 L 569.70 294.10 L 567.80 290.20 L 566.50 288.70 L 565.20 287.90 L 563.90 287.60 L 565.20 287.30 L 566.50 286.50 L 567.80 285.10 L 569.70 281.20 L 571.20 274.10 L 571.50 269.00 L 571.80 274.10 L 573.40 281.20 L 575.30 285.10 L 576.50 286.50 L 577.80 287.30 L 579.10 287.60" fill="#ffffff" fill-rule="evenodd" group-id="1,2,4,12" id="Fill-148" node-id="129" stroke="none" target-height="37.299988" target-width="15.199951" target-x="563.9" target-y="269"></path><path d="M 532.20 334.70 L 530.30 335.50 L 529.40 336.60 L 528.30 338.60 L 527.40 341.60 L 526.80 344.80 L 526.60 348.60 L 526.40 344.80 L 525.80 341.60 L 524.90 338.60 L 522.80 335.50 L 520.90 334.70 L 522.80 333.90 L 523.80 332.80 L 524.90 330.80 L 525.80 327.80 L 526.40 324.60 L 526.60 320.80 L 526.80 324.60 L 527.40 327.80 L 528.30 330.80 L 530.30 333.90 L 532.20 334.70" fill="#ffffff" fill-rule="evenodd" group-id="1,2,4,12" id="Fill-150" node-id="130" stroke="none" target-height="27.800018" target-width="11.299988" target-x="520.9" target-y="320.8"></path><path d="M 600.50 337.00 L 599.60 337.30 L 598.80 338.00 L 598.00 339.50 L 597.30 342.10 L 597.00 345.50 L 596.70 342.10 L 596.00 339.50 L 595.20 338.00 L 594.40 337.30 L 593.60 337.00 L 594.40 336.80 L 595.20 336.00 L 596.00 334.60 L 596.70 332.00 L 597.00 328.60 L 597.30 332.00 L 598.00 334.60 L 598.80 336.00 L 599.60 336.80 L 600.50 337.00" fill="#ffffff" fill-rule="evenodd" group-id="1,2,4,12" id="Fill-152" node-id="131" stroke="none" target-height="16.899994" target-width="6.9000244" target-x="593.6" target-y="328.6"></path><path d="M 565.10 419.30 L 564.00 419.60 L 562.80 420.30 L 561.70 421.60 L 560.40 424.00 L 559.30 427.50 L 558.60 431.40 L 558.40 435.80 L 558.10 431.40 L 557.50 427.50 L 556.30 424.00 L 555.00 421.60 L 553.90 420.30 L 552.80 419.60 L 551.60 419.30 L 552.80 419.10 L 553.90 418.40 L 555.00 417.10 L 556.30 414.60 L 557.50 411.10 L 558.10 407.30 L 558.40 402.80 L 558.60 407.30 L 559.30 411.10 L 560.40 414.60 L 561.70 417.10 L 562.80 418.40 L 564.00 419.10 L 565.10 419.30" fill="#ffffff" fill-rule="evenodd" group-id="1,2,4,12" id="Fill-154" node-id="132" stroke="none" target-height="33" target-width="13.5" target-x="551.6" target-y="402.8"></path><path d="M 509.30 379.20 L 507.50 380.00 L 505.70 382.80 L 504.30 388.40 L 504.10 391.90 L 503.90 388.40 L 502.60 382.80 L 500.70 380.00 L 499.00 379.20 L 500.70 378.50 L 502.60 375.60 L 503.90 370.00 L 504.10 366.60 L 504.30 370.00 L 505.70 375.60 L 507.50 378.50 L 509.30 379.20" fill="#ffffff" fill-rule="evenodd" group-id="1,2,4,12" id="Fill-156" node-id="133" stroke="none" target-height="25.299988" target-width="10.299988" target-x="499" target-y="366.6"></path><path d="M 291.30 396.60 L 291.30 267.10 L 213.20 396.60 L 291.30 396.60 Z M 281.80 458.20 L 139.40 458.20 L 139.40 409.80 L 284.40 171.80 L 349.50 171.80 L 349.50 396.60 L 394.20 396.60 L 394.20 458.20 L 349.50 458.20 L 349.50 539.80 L 281.80 539.80 L 281.80 458.20 Z" fill="#285fd7" fill-rule="evenodd" group-id="1,2,4,12" id="Fill-158" node-id="134" stroke="none" target-height="368" target-width="254.80002" target-x="139.4" target-y="171.8"></path><path d="M 599.50 442.90 L 596.00 448.60 L 592.20 453.60 L 588.30 458.00 L 584.20 461.80 L 579.90 465.00 L 575.50 467.70 L 570.70 470.00 L 565.80 471.70 L 560.60 473.00 L 555.10 473.70 L 549.20 474.00 L 543.30 473.70 L 537.80 473.00 L 532.60 471.70 L 527.60 470.00 L 522.90 467.70 L 518.40 465.00 L 514.20 461.80 L 510.10 458.00 L 506.10 453.60 L 502.40 448.60 L 498.80 442.90 L 495.40 436.40 L 492.30 429.30 L 489.50 421.50 L 487.10 412.90 L 485.00 403.60 L 483.30 393.40 L 482.10 382.30 L 481.30 370.30 L 481.00 357.10 L 481.30 343.90 L 482.10 331.70 L 483.30 320.50 L 485.00 310.20 L 487.00 300.70 L 489.40 292.10 L 492.20 284.10 L 495.20 276.90 L 498.60 270.30 L 502.10 264.50 L 505.90 259.40 L 509.80 255.00 L 513.90 251.10 L 518.10 247.80 L 522.60 245.10 L 527.40 242.80 L 532.40 241.00 L 537.60 239.70 L 543.20 239.00 L 549.20 238.70 L 555.10 239.00 L 560.70 239.70 L 566.00 241.00 L 571.00 242.80 L 575.70 245.10 L 580.20 247.80 L 584.50 251.10 L 588.60 255.00 L 592.50 259.40 L 596.20 264.50 L 599.80 270.30 L 603.10 276.90 L 606.20 284.10 L 608.90 292.10 L 611.40 300.70 L 613.40 310.20 L 615.10 320.50 L 616.30 331.70 L 617.10 343.90 L 617.30 357.10 L 617.10 370.30 L 616.30 382.30 L 615.00 393.40 L 613.40 403.60 L 611.30 412.90 L 608.80 421.50 L 606.10 429.30 L 603.00 436.40 L 599.50 442.90 M 667.90 253.40 L 663.90 243.60 L 659.60 234.50 L 655.00 226.00 L 650.10 218.20 L 644.90 210.90 L 639.40 204.20 L 633.70 198.00 L 627.60 192.30 L 621.20 187.10 L 614.40 182.30 L 607.30 178.00 L 600.00 174.30 L 592.40 171.20 L 584.40 168.60 L 576.20 166.60 L 567.60 165.10 L 558.60 164.20 L 549.20 163.90 L 539.80 164.20 L 530.80 165.10 L 522.20 166.60 L 513.90 168.60 L 506.00 171.20 L 498.30 174.30 L 490.90 178.00 L 483.80 182.30 L 476.90 187.10 L 470.50 192.30 L 464.40 198.00 L 458.60 204.20 L 453.10 210.90 L 447.90 218.20 L 443.00 226.10 L 438.30 234.50 L 434.00 243.60 L 430.00 253.40 L 426.60 263.20 L 423.60 273.40 L 420.90 284.20 L 418.70 295.60 L 416.80 307.60 L 415.40 320.30 L 414.50 331.70 L 413.80 356.10 L 414.50 379.80 L 416.50 401.60 L 418.40 414.10 L 420.70 426.10 L 423.50 437.50 L 426.70 448.20 L 430.30 458.50 L 434.30 468.40 L 438.70 477.50 L 443.30 486.00 L 448.30 493.90 L 453.50 501.20 L 459.00 507.90 L 464.80 514.00 L 470.90 519.70 L 477.30 524.80 L 484.20 529.60 L 491.40 533.80 L 498.70 537.40 L 506.30 540.50 L 514.20 543.10 L 522.50 545.10 L 531.00 546.50 L 539.90 547.40 L 549.20 547.70 L 558.50 547.40 L 567.40 546.50 L 575.90 545.10 L 584.10 543.10 L 592.00 540.50 L 599.60 537.40 L 606.90 533.80 L 614.00 529.60 L 620.80 524.80 L 627.20 519.70 L 633.20 514.00 L 639.00 507.90 L 644.50 501.20 L 649.70 493.90 L 654.60 486.00 L 659.30 477.50 L 663.60 468.40 L 667.70 458.50 L 671.40 447.90 L 674.60 436.80 L 677.40 425.10 L 679.80 412.70 L 681.70 399.70 L 683.10 385.90 L 683.90 371.40 L 684.20 356.10 L 683.90 340.60 L 683.10 325.90 L 681.70 312.10 L 679.80 299.00 L 677.50 286.60 L 674.70 274.90 L 671.50 263.90 L 667.90 253.40" fill="#285fd7" fill-rule="evenodd" group-id="1,2,4,12" id="Fill-160" node-id="135" stroke="none" target-height="383.80002" target-width="270.40002" target-x="413.8" target-y="163.9"></path><path d="M 855.60 396.60 L 855.60 267.10 L 777.50 396.60 L 855.60 396.60 Z M 846.10 458.20 L 703.70 458.20 L 703.70 409.80 L 848.70 171.80 L 913.80 171.80 L 913.80 396.60 L 958.50 396.60 L 958.50 458.20 L 913.80 458.20 L 913.80 539.80 L 846.10 539.80 L 846.10 458.20 Z" fill="#285fd7" fill-rule="evenodd" group-id="1,2,4,12" id="Fill-162" node-id="136" stroke="none" target-height="368" target-width="254.79999" target-x="703.7" target-y="171.8"></path></g><path d="M 619.70 469.30 L 624.10 530.60 L 647.50 512.60 L 641.40 405.70 Z" fill="none" group-id="1,2,4,13,25" id="Fill-165" node-id="141" stroke="none" target-height="124.89996" target-width="27.799988" target-x="619.7" target-y="405.7"></path></g><g node-id="255"><path d="M 349.60 666.40 L 358.00 644.10 L 375.30 655.00 L 366.00 674.90 Z" fill="#ef3c86" fill-rule="evenodd" group-id="1,2,5" id="Fill-168" node-id="143" stroke="none" target-height="30.800049" target-width="25.699982" target-x="349.6" target-y="644.1"></path><path d="M 350.60 663.50 L 343.20 684.70 L 417.80 684.80 L 412.10 680.20 L 406.90 677.00 L 398.20 672.90 L 392.10 670.80 L 386.00 669.00 L 378.70 667.40 L 350.60 663.50 Z" fill="#0b096f" fill-rule="evenodd" group-id="1,2,5" id="Fill-170" node-id="144" stroke="none" target-height="21.299988" target-width="74.599976" target-x="343.2" target-y="663.5"></path><path d="M 402.20 424.40 L 394.40 540.10 L 345.90 658.90 L 378.50 662.80 L 432.00 557.00 L 454.70 436.50 Z" fill="#131318" fill-rule="evenodd" group-id="1,2,5" id="Fill-172" node-id="145" stroke="none" target-height="238.4" target-width="108.80002" target-x="345.9" target-y="424.4"></path><path d="M 440.50 301.20 L 521.80 284.90 L 524.10 285.80 L 525.50 286.80 L 526.70 288.30 L 527.80 290.70 L 528.20 293.20 L 527.90 296.90 L 526.90 298.90 L 443.20 333.30 L 440.50 301.20 Z" fill="#ff77ca" fill-rule="evenodd" group-id="1,2,5" id="Fill-174" node-id="146" stroke="none" target-height="48.399994" target-width="87.70001" target-x="440.5" target-y="284.9"></path><path d="M 431.80 323.60 L 482.40 338.40 L 493.40 302.80 L 504.90 307.20 L 497.40 366.60 L 426.60 355.00 Z" fill="#ff77ca" fill-rule="evenodd" group-id="1,2,5" id="Fill-176" node-id="147" stroke="none" target-height="63.80002" target-width="78.29999" target-x="426.6" target-y="302.8"></path><path d="M 442.30 298.90 L 387.80 313.20 L 453.30 329.50 Z" fill="#fe7a00" fill-rule="evenodd" group-id="1,2,5" id="Fill-178" node-id="148" stroke="none" target-height="30.600006" target-width="65.5" target-x="387.8" target-y="298.9"></path><path d="M 358.40 234.20 L 362.90 245.90 L 358.80 249.00 L 348.70 242.10" fill="none" group-id="1,2,5" id="Stroke-180" node-id="149" stroke="#0b096f" stroke-linecap="butt" stroke-width="6.3" target-height="14.800003" target-width="14.199982" target-x="348.7" target-y="234.2"></path><path d="M 425.70 232.40 L 428.80 235.10 L 432.70 239.60 L 435.30 244.40 L 436.20 248.50 L 436.20 250.70 L 435.60 252.80 L 434.50 255.10 L 433.00 257.10 L 430.70 259.20 L 427.30 261.40 L 425.70 232.40 Z" fill="#0b096f" fill-rule="evenodd" group-id="1,2,5" id="Fill-182" node-id="150" stroke="none" target-height="29" target-width="10.5" target-x="425.7" target-y="232.4"></path><path d="M 376.40 276.30 L 375.20 275.10 L 373.20 274.10 L 370.80 273.30 L 368.10 272.90 L 365.40 273.00 L 361.00 274.20 L 358.20 276.30 L 357.20 277.70 L 356.50 279.60 L 356.10 281.90 L 356.30 284.30 L 356.90 286.50 L 357.90 288.30 L 361.10 291.40 L 366.30 294.10 L 373.50 296.10 L 384.20 297.20 L 388.90 318.00 L 414.50 314.60 L 409.50 296.30 L 426.20 292.40 L 433.40 290.10 L 436.40 288.80 L 438.00 287.70 L 437.70 285.00 L 436.60 278.20 L 433.20 263.40 L 429.50 252.90 L 427.30 248.00 L 402.90 235.80 L 372.10 246.80 L 376.40 276.30 Z" fill="#ff77ca" fill-rule="evenodd" group-id="1,2,5" id="Fill-184" node-id="151" stroke="none" target-height="82.2" target-width="81.899994" target-x="356.1" target-y="235.8"></path><path d="M 362.40 273.60 L 359.10 272.60 L 356.00 270.40 L 354.10 267.30 L 353.60 265.40 L 353.40 263.00 L 353.70 259.90 L 354.40 256.80 L 355.80 253.00 L 358.10 248.30 L 360.90 243.80 L 363.60 240.20 L 366.20 237.40 L 369.20 234.90 L 374.60 231.80 L 378.60 230.40 L 382.00 229.80 L 385.10 229.60 L 389.30 230.10 L 389.80 222.80 L 390.50 219.70 L 391.50 216.40 L 393.00 213.30 L 395.00 210.50 L 396.70 208.90 L 398.60 207.60 L 401.00 206.70 L 403.90 206.20 L 406.60 206.20 L 409.20 206.70 L 413.90 208.70 L 416.10 210.20 L 419.00 212.90 L 423.80 218.90 L 425.60 221.70 L 428.90 228.40 L 432.00 219.90 L 434.60 215.10 L 437.20 212.40 L 439.30 211.90 L 440.10 212.20 L 442.00 214.80 L 442.70 216.70 L 443.90 222.00 L 444.00 224.90 L 443.30 231.50 L 442.30 234.80 L 440.70 238.10 L 438.50 241.50 L 434.20 246.00 L 427.90 250.30 L 420.20 253.60 L 409.60 256.20 L 404.10 256.90 L 390.30 257.50 L 381.90 257.20 L 383.60 259.90 L 384.40 261.90 L 384.90 264.00 L 384.70 268.10 L 382.80 271.60 L 381.40 273.10 L 379.30 274.70 L 376.40 276.30 L 374.60 274.90 L 371.10 273.50 L 368.60 273.10 L 365.90 273.00 L 362.40 273.60" fill="#0b096f" fill-rule="evenodd" group-id="1,2,5" id="Fill-186" node-id="152" stroke="none" target-height="70.09999" target-width="90.600006" target-x="353.4" target-y="206.2"></path><path d="M 411.20 285.00 L 411.00 283.80 L 411.50 282.50 L 412.30 281.30 L 413.80 280.10 L 415.50 279.30 L 417.60 278.70 L 421.70 279.00 L 423.30 279.60 L 425.80 281.50 L 426.90 283.90 L 426.80 285.10 L 426.30 286.40 L 425.40 287.30 L 424.30 287.80 L 423.10 287.90 L 417.50 286.90 L 414.60 287.10 L 413.20 286.80 L 412.00 286.10 L 411.20 285.00" fill="#ffffff" fill-rule="evenodd" group-id="1,2,5" id="Fill-188" node-id="153" stroke="none" target-height="9.199982" target-width="15.899994" target-x="411" target-y="278.7"></path><path d="M 409.50 296.30 L 393.00 297.30 L 411.40 303.50 Z" fill="#ef3c86" fill-rule="evenodd" group-id="1,2,5" id="Fill-190" node-id="154" stroke="none" target-height="7.200012" target-width="18.399994" target-x="393" target-y="296.3"></path><path d="M 421.10 263.30 L 430.10 275.00 L 423.70 276.90 Z" fill="#285fd7" fill-rule="evenodd" group-id="1,2,5" id="Fill-192" node-id="155" stroke="none" target-height="13.600006" target-width="9" target-x="421.1" target-y="263.3"></path><path d="M 460.10 326.30 L 442.90 300.60 L 452.50 329.50 Z" fill="#ef3c86" fill-rule="evenodd" group-id="1,2,5" id="Fill-194" node-id="156" stroke="none" target-height="28.899994" target-width="17.200012" target-x="442.9" target-y="300.6"></path><path d="M 460.90 360.60 L 455.60 330.50 L 454.40 359.50 Z" fill="#ef3c86" fill-rule="evenodd" group-id="1,2,5" id="Fill-196" node-id="157" stroke="none" target-height="30.100006" target-width="6.5" target-x="454.4" target-y="330.5"></path><path d="M 415.70 265.00 L 416.00 266.30 L 415.80 267.60 L 415.20 268.70 L 414.10 269.50 L 412.80 269.80 L 411.50 269.70 L 410.40 269.00 L 409.60 267.90 L 409.20 266.60 L 409.40 265.30 L 410.10 264.20 L 411.20 263.40 L 412.50 263.10 L 413.80 263.30 L 414.90 263.90 L 415.70 265.00" fill="#0b096f" fill-rule="evenodd" group-id="1,2,5" id="Fill-198" node-id="158" stroke="none" target-height="6.6999817" target-width="6.799988" target-x="409.2" target-y="263.1"></path><path d="M 432.00 261.00 L 432.30 262.30 L 432.10 263.60 L 431.50 264.70 L 430.40 265.50 L 429.10 265.80 L 427.80 265.70 L 426.70 265.00 L 425.90 263.90 L 425.50 262.60 L 425.70 261.30 L 426.40 260.20 L 427.40 259.40 L 428.80 259.10 L 430.00 259.30 L 431.10 259.90 L 432.00 261.00" fill="#0b096f" fill-rule="evenodd" group-id="1,2,5" id="Fill-200" node-id="159" stroke="none" target-height="6.6999817" target-width="6.799988" target-x="425.5" target-y="259.1"></path><path d="M 401.70 429.80 L 393.90 416.90 L 390.60 410.50 L 383.20 394.60 L 379.80 385.50 L 376.10 373.00 L 374.70 366.50 L 373.70 360.00 L 373.20 353.50 L 373.20 347.20 L 374.30 337.80 L 377.00 328.90 L 378.90 324.80 L 381.30 320.80 L 384.30 316.90 L 387.80 313.20 L 389.30 312.30 L 391.50 311.50 L 394.50 311.20 L 399.30 311.20 L 411.60 312.90 L 425.30 316.00 L 443.90 321.40 L 455.80 325.30 L 453.80 371.90 L 442.30 369.60 L 464.50 404.30 L 476.50 435.10 L 457.10 431.90 L 440.70 430.40 L 431.20 429.90 L 421.50 429.80 L 408.70 430.10 L 401.70 429.80" fill="#ffc100" fill-rule="evenodd" group-id="1,2,5" id="Fill-202" node-id="160" stroke="none" target-height="123.899994" target-width="103.29999" target-x="373.2" target-y="311.2"></path><path d="M 615.20 464.60 L 602.10 450.40 L 617.30 434.60 L 627.90 453.00 Z" fill="#ef3c86" fill-rule="evenodd" group-id="1,2,5" id="Fill-204" node-id="161" stroke="none" target-height="30" target-width="25.800049" target-x="602.1" target-y="434.6"></path><path d="M 619.70 430.40 L 557.60 358.50 L 555.40 356.40 L 553.00 354.70 L 550.50 353.30 L 547.80 352.40 L 542.20 351.50 L 536.60 352.10 L 533.90 353.00 L 531.30 354.20 L 528.80 355.80 L 526.50 357.80 L 464.50 404.30 L 462.50 407.90 L 457.70 413.40 L 453.90 416.60 L 447.50 420.70 L 438.90 424.60 L 427.60 427.90 L 421.40 429.00 L 414.20 429.90 L 406.00 430.50 L 410.70 438.70 L 416.80 446.40 L 422.30 451.50 L 429.00 456.20 L 432.80 458.10 L 437.00 459.70 L 441.40 460.90 L 446.10 461.60 L 451.30 461.80 L 459.30 461.00 L 468.60 458.60 L 473.00 456.60 L 485.10 449.50 L 492.10 444.70 L 506.50 434.10 L 520.50 423.20 L 544.00 403.90 L 606.70 464.70 L 619.70 430.40 Z" fill="#2d2d32" fill-rule="evenodd" group-id="1,2,5" id="Fill-206" node-id="162" stroke="none" target-height="113.20001" target-width="213.70001" target-x="406" target-y="351.5"></path><path d="M 409.20 256.80 L 403.40 262.20" fill="none" group-id="1,2,5" id="Stroke-208" node-id="163" stroke="#0b096f" stroke-linecap="butt" stroke-width="4.9" target-height="5.4000244" target-width="5.8000183" target-x="403.4" target-y="256.8"></path><path d="M 425.00 253.30 L 434.60 254.80" fill="none" group-id="1,2,5" id="Stroke-210" node-id="164" stroke="#0b096f" stroke-linecap="butt" stroke-width="4.9" target-height="1.5" target-width="9.600006" target-x="425" target-y="253.3"></path><path d="M 615.20 464.60 L 627.90 477.90 L 641.40 405.70 L 632.60 420.10 L 626.10 433.20 L 622.70 441.20 L 615.20 464.60 Z" fill="#0b096f" fill-rule="evenodd" group-id="1,2,5" id="Fill-212" node-id="165" stroke="none" target-height="72.19998" target-width="26.200012" target-x="615.2" target-y="405.7"></path><path d="M 442.30 369.60 L 414.80 362.60 L 448.80 379.70 Z" fill="#fe7a00" fill-rule="evenodd" group-id="1,2,5" id="Fill-214" node-id="166" stroke="none" target-height="17.100006" target-width="34" target-x="414.8" target-y="362.6"></path><path d="M 506.30 285.80 L 505.30 288.00 L 501.50 291.50 L 496.50 297.40 L 494.00 301.30 L 493.20 302.90 L 493.10 305.50 L 493.90 307.30 L 495.30 308.70 L 498.80 310.90 L 502.00 312.10 L 504.70 312.70 L 507.10 312.80 L 508.30 312.60 L 510.10 311.60 L 512.90 311.10 L 515.00 307.90 L 517.70 305.20 L 518.00 304.00 L 517.60 301.10 L 516.60 299.30 L 512.70 297.00 L 510.90 294.80 L 510.60 293.40 L 511.10 289.40 L 510.80 287.50 L 509.90 285.90 L 508.90 285.10 L 508.00 284.90 L 507.20 285.10 L 506.30 285.80" fill="#ff77ca" fill-rule="evenodd" group-id="1,2,5" id="Fill-216" node-id="167" stroke="none" target-height="27.899994" target-width="24.899994" target-x="493.1" target-y="284.9"></path><path d="M 490.80 314.10 L 494.90 299.90 L 495.80 298.00 L 499.30 293.40 L 502.10 291.00 L 506.10 288.20" fill="none" group-id="1,2,5" id="Stroke-218" node-id="168" stroke="#ef3c86" stroke-linecap="butt" stroke-width="2.1" target-height="25.899994" target-width="15.300018" target-x="490.8" target-y="288.2"></path><path d="M 510.60 287.10 L 511.10 289.90 L 510.50 293.80 L 510.80 294.90 L 512.60 296.90 L 516.60 299.30 L 517.40 300.50 L 518.00 302.60" fill="none" group-id="1,2,5" id="Stroke-220" node-id="169" stroke="#ef3c86" stroke-linecap="butt" stroke-width="2.1" target-height="15.5" target-width="7.5" target-x="510.5" target-y="287.1"></path><path d="M 504.20 313.00 L 504.90 306.60" fill="none" group-id="1,2,5" id="Stroke-222" node-id="170" stroke="#ef3c86" stroke-linecap="butt" stroke-width="2.1" target-height="6.399994" target-width="0.6999817" target-x="504.2" target-y="306.6"></path></g></g></g></svg>